<?xml version="1.0" encoding="utf-8"?>
<!-- Generator: Adobe Illustrator 16.0.0, SVG Export Plug-In . SVG Version: 6.00 Build 0)  -->
<!DOCTYPE svg PUBLIC "-//W3C//DTD SVG 1.1//EN" "http://www.w3.org/Graphics/SVG/1.1/DTD/svg11.dtd">
<svg version="1.1" xmlns="http://www.w3.org/2000/svg" xmlns:xlink="http://www.w3.org/1999/xlink" x="0px" y="0px" width="360px"
	 height="2880px" viewBox="0 0 360 2880" enable-background="new 0 0 360 2880" xml:space="preserve">
<g id="Parrot">
	<path fill="#FFFFFF" d="M205.197,68.416h-50.393v50.404c-27.822,0-50.381,22.557-50.381,50.379v75.585l0,0v25.205
		c13.91,0,25.191-11.296,25.191-25.205h0.007v25.205c13.909,0,25.183-11.296,25.183-25.205l0,0v-25.2h50.393h25.191
		c0-13.898-11.281-25.18-25.191-25.18v-25.205c15.053,0,28.559-6.607,37.795-17.072v4.477v12.596
		c6.953,0,12.592-5.617,12.592-12.596V118.82C255.584,90.979,233.025,68.416,205.197,68.416z"/>
</g>
<g id="Elephant">
	<path fill="#FFFFFF" d="M280.768,369.02v0.02c-13.909,0-25.19,11.254-25.19,25.166h-1.602
		c-5.578-21.707-25.318-37.775-48.792-37.775c0-27.836-22.552-50.393-50.391-50.393c-27.82,0-50.377,22.557-50.377,50.393
		c0,27.814,22.557,50.391,50.377,50.391c-27.82,0-50.377,22.545-50.377,50.379v34.648c0,1.732,1.408,3.154,3.145,3.154
		c1.733,0,3.147-1.422,3.147-3.154v-10.246c8.599,15.498,25.12,25.982,44.085,25.982h50.391h25.194
		c0-13.898-11.285-25.191-25.194-25.191v-25.193c23.474,0,43.214-16.049,48.792-37.789h1.602c13.909,0,25.19-11.281,25.19-25.205
		c0,6.965,5.637,12.615,12.604,12.615c6.95,0,12.595-5.65,12.595-12.615l0,0C305.966,380.293,294.685,369.02,280.768,369.02z"/>
</g>
<g id="Donkey">
	<path fill="#FFFFFF" d="M205.184,644.43c13.917,0,25.194-11.283,25.194-25.193h-25.194c-13.909,0-25.186,11.282-25.186,25.193
		c0-13.911-11.281-25.193-25.199-25.193h-25.186c0,13.91,11.275,25.193,25.186,25.193v50.392c-25.69,0-46.864,19.229-49.979,44.082
		h-0.406c0-13.917-11.273-25.198-25.191-25.198c-6.959,0-12.604,5.651-12.604,12.604c0,6.944,5.645,12.595,12.604,12.595h12.588
		c0,6.959,5.645,12.604,12.604,12.604h0.406c3.114,24.854,24.288,44.077,49.979,44.077h50.385v-50.385
		c27.822,0,50.4-22.55,50.4-50.378C255.584,666.978,233.006,644.43,205.184,644.43z"/>
</g>
<g id="Cat">
	<path fill="#FFFFFF" d="M305.97,1033.192c-6.962,0-12.596,5.652-12.596,12.61c0,6.959,5.634,12.583,12.596,12.583H205.202v-25.193
		c27.822,0,50.375-22.543,50.375-50.385c0-27.822-22.553-50.398-50.375-50.398v-25.18c-13.928,0-25.199,11.269-25.199,25.18v-25.18
		c-13.917,0-25.198,11.269-25.198,25.18v50.398c-27.822,0-50.389,22.557-50.389,50.385c0,27.836,22.566,50.398,50.389,50.398h50.397
		H305.97c13.909,0,25.198-11.281,25.198-25.205C331.168,1044.501,319.879,1033.192,305.97,1033.192z"/>
</g>
<g id="Bull">
	<path fill="#FFFFFF" d="M229.601,1226.723c0.521-2.018,0.793-4.143,0.793-6.308c0-13.924-11.281-25.18-25.195-25.18v25.18h-50.396
		v-25.18c-13.895,0-25.182,11.256-25.182,25.18s11.287,25.192,25.182,25.192v25.192c-27.812,0-50.375,22.557-50.375,50.399
		c-6.959,0-12.593,5.637-12.593,12.596l0,0v25.186c0-6.959-5.652-12.589-12.605-12.589v12.589c0,6.967,5.639,12.604,12.605,12.604
		c6.956,0,12.593-5.637,12.593-12.604v-25.186l0,0h1.594c5.588,21.74,25.312,37.789,48.781,37.789h50.396v-50.385
		c27.83,0,50.386-22.557,50.386-50.399C255.584,1251.824,245.094,1235.309,229.601,1226.723z"/>
</g>
<g id="Mouse">
	<path fill="#FFFFFF" d="M255.584,1558.8c0-27.822-22.578-50.385-50.4-50.385c0-27.836-22.555-50.379-50.39-50.379
		c-27.822,0-50.38,22.543-50.38,50.379c0,27.834,22.558,50.385,50.38,50.385c-23.461,0-43.196,16.068-48.8,37.789h-1.58
		c0-10.42-8.459-18.887-18.897-18.887c-10.438,0-18.897,8.467-18.897,18.887c0-3.473-2.822-6.295-6.296-6.295
		c-3.479,0-6.294,2.822-6.294,6.295c0,6.979,5.632,12.609,12.59,12.609c6.959,0,12.604-5.631,12.604-12.609
		c0,13.924,11.273,25.219,25.191,25.219c0.53,0,1.051-0.027,1.58-0.066c5.572,21.766,25.313,37.842,48.8,37.842h50.39h25.194
		c0-13.898-11.276-25.193-25.194-25.193v-25.191C233.006,1609.198,255.584,1586.64,255.584,1558.8z"/>
</g>
<g id="Rabbit">
	<path fill="#FFFFFF" d="M205.201,1796.425h-25.198l0,0v-25.198c-13.899,0-25.179,11.286-25.199,25.186
		c0-13.899-11.284-25.186-25.184-25.186v25.198l0,0c0,13.923,11.279,25.204,25.184,25.204l0,0v25.207
		c-11.331,0-21.802,3.738-30.226,10.073c-4.6-6.128-11.907-10.073-20.156-10.073c-13.916,0-25.191,11.268-25.191,25.193
		c0,13.904,11.275,25.191,25.191,25.191c0,27.835,22.564,50.372,50.382,50.372h50.397v-50.372c27.83,0,50.383-22.555,50.383-50.385
		C255.584,1818.988,233.031,1796.425,205.201,1796.425z"/>
</g>
<g id="Deer">
	<path fill="#FFFFFF" d="M205.194,2084.422h-0.113V2073.4h17.324c4.35,0,7.867-3.514,7.867-7.869v-15.75v-15.738
		c-8.691,0-15.744,7.033-15.744,15.738v7.867h-17.316c-4.348,0-7.871,3.541-7.871,7.883v18.891h-18.789v-18.891
		c0-4.342-3.523-7.883-7.869-7.883h-17.323v-7.867c0-8.705-7.057-15.738-15.75-15.738v15.738v15.75c0,4.355,3.529,7.869,7.871,7.869
		h17.317v11.021h-25.188c0,13.924,11.279,25.191,25.188,25.191v25.207c-27.819,0-50.381,22.543-50.381,50.385v25.193
		c0,1.738,1.416,3.145,3.15,3.145s3.141-1.406,3.141-3.145v-0.797c8.6,15.49,25.119,25.977,44.09,25.977h50.397v-50.373
		c27.814,0,50.391-22.543,50.391-50.385C255.585,2106.984,233.009,2084.422,205.194,2084.422z"/>
</g>
<g id="Squirrel">
	<path fill="#FFFFFF" d="M255.584,2422.807c0-27.834-22.58-50.397-50.4-50.397h-25.191v-25.198
		c-13.918,0-25.199,11.286-25.199,25.198v50.397c0-55.656-45.121-100.764-100.766-100.764c-27.822,0-50.393,22.544-50.393,50.366
		c0,27.835,22.57,50.397,50.393,50.397c0,55.657,45.105,100.771,100.766,100.771h50.391h25.193
		c0-13.912-11.281-25.191-25.193-25.191v-25.195C233.004,2473.191,255.584,2450.616,255.584,2422.807z"/>
</g>
<g id="Dragon">
	<g>
		<path fill="#FFFFFF" d="M205,2660.416h-50.391v50.383c-27.824,0-50.381,22.562-50.381,50.383v25.195H79.025
			c0,13.928,11.275,25.207,25.203,25.207h50.381H205v-50.402c27.822,0,50.391-22.559,50.391-50.383
			C255.391,2682.979,232.822,2660.416,205,2660.416z"/>
		<path fill="#FFFFFF" d="M305.773,2710.799h-50.383c0,13.928,11.273,25.195,25.191,25.195c0,13.918,11.273,25.188,25.191,25.188
			c13.912,0,25.201-11.27,25.201-25.188C330.975,2722.082,319.686,2710.799,305.773,2710.799z"/>
		<path fill="#FFFFFF" d="M129.418,2685.598h-25.189c0,13.922,11.268,25.201,25.189,25.201h25.191
			C154.609,2696.891,143.32,2685.598,129.418,2685.598z"/>
	</g>
</g>
</svg>
