<?xml version="1.0" standalone="no"?>
<!DOCTYPE svg PUBLIC "-//W3C//DTD SVG 1.1//EN" "http://www.w3.org/Graphics/SVG/1.1/DTD/svg11.dtd" >
<svg xmlns="http://www.w3.org/2000/svg">
<metadata></metadata>
<defs>
<font id="latobold_italic" horiz-adv-x="1187" >
<font-face units-per-em="2048" ascent="1649" descent="-399" />
<missing-glyph horiz-adv-x="395" />
<glyph unicode="&#xfb01;" horiz-adv-x="1138" d="M514 1070l-3 -29h604l-126 -1041h-249l107 861h-348l-101 -819l-51 -193q-26 -104 -131 -104h-101l137 1115l-78 14q-55 11 -55 53l11 114h144l5 34q24 201 163 324t381 123q96 0 158 -20l-25 -126q-3 -12 -8.5 -18.5t-19.5 -8.5t-21 -2.5t-30 -0.5q-182 0 -264 -66 t-99 -210z" />
<glyph unicode="&#xfb02;" horiz-adv-x="1165" d="M714 861h-214l-102 -819l-51 -193q-26 -104 -131 -104h-101l137 1115l-78 14q-55 11 -55 53l12 114h142l7 46q11 86 44.5 160.5t89.5 134t139.5 93.5t185.5 34q54 0 151.5 -6t143.5 -6h164l-184 -1497h-245l160 1317q-116 14 -173 14q-102 0 -164.5 -62.5t-74.5 -181.5 l-5 -46h222z" />
<glyph horiz-adv-x="0" />
<glyph unicode="&#xd;" horiz-adv-x="0" />
<glyph horiz-adv-x="0" />
<glyph horiz-adv-x="0" />
<glyph unicode=" "  horiz-adv-x="395" />
<glyph unicode="&#x09;" horiz-adv-x="395" />
<glyph unicode="&#xa0;" horiz-adv-x="395" />
<glyph unicode="!" horiz-adv-x="684" d="M509 1481h228l-71 -587q-17 -142 -79 -374h-165q0 14 -0.5 40.5t-0.5 39.5q0 163 16 294zM315 139q0 65 44.5 110t110.5 45q65 0 110.5 -45.5t45.5 -109.5q0 -65 -45.5 -109t-110.5 -44q-66 0 -110.5 44t-44.5 109z" />
<glyph unicode="&#x22;" horiz-adv-x="802" d="M654 1480h-212l-36 -295v-161q6 -45 22.5 -67.5t51.5 -22.5q41 0 63 22.5t34 67.5l40 161zM1008 1480h-212l-37 -295v-161q11 -90 75 -90q41 0 62.5 22t33.5 68l41 161z" />
<glyph unicode="#" d="M1086 419h-225l-130 -419h-113q-27 0 -44 19.5t-17 49.5q0 12 5 32l100 318h-217l-101 -330q-13 -46 -46.5 -67.5t-74.5 -21.5h-108l131 419h-122q-58 0 -58 52q0 17 8 47l21 77h197l90 291h-221l30 100q11 40 38.5 57.5t80.5 17.5h119l106 336q12 38 43 60.5t71 22.5 h112l-132 -419h215l131 419h109q31 0 50.5 -17.5t19.5 -44.5q0 -15 -4 -24l-106 -333h210l-32 -102q-12 -39 -38.5 -56t-77.5 -17h-109l-90 -291h151q59 0 59 -51q0 -17 -8 -47zM583 886l-91 -291h216l90 291h-215z" />
<glyph unicode="$" d="M407 -230l45 221q-117 15 -216 64t-164 123l89 112q26 33 65 33q23 0 57.5 -26t89 -59t120.5 -45l96 470q-61 18 -103 34t-92.5 45.5t-81 64.5t-51.5 90t-21 123q0 89 36.5 172t102 148.5t164.5 106.5t217 46l26 130q5 26 26 44.5t48 18.5h90l-41 -201q187 -32 303 -161 l-69 -89q-29 -40 -66 -40q-18 0 -85.5 37t-124.5 50l-89 -434q48 -15 76.5 -25.5t71.5 -29t69.5 -35.5t57.5 -43.5t48 -55.5t28.5 -69t11.5 -86q0 -100 -38 -190.5t-106.5 -160.5t-170.5 -114.5t-224 -52.5l-32 -155q-5 -25 -25.5 -43t-47.5 -18h-90zM902 444 q0 65 -43.5 103.5t-127.5 69.5l-87 -428q124 14 191 81.5t67 173.5zM474 1074q0 -64 42 -105t121 -73l80 390q-123 -14 -183 -71.5t-60 -140.5z" />
<glyph unicode="%" horiz-adv-x="1518" d="M834 1178q0 -95 -31.5 -176t-83.5 -134t-118 -83t-135 -30q-124 0 -200 85t-76 228q0 190 105.5 308t261.5 118q125 0 201 -86t76 -230zM644 1177q0 82 -28.5 120.5t-77.5 38.5q-73 0 -116 -65t-43 -203q0 -155 106 -155q72 0 115.5 63.5t43.5 200.5zM125 0l1192 1441 q39 39 84 39h177l-1194 -1443q-29 -37 -79 -37h-180zM1511 404q0 -95 -31.5 -176t-83 -134t-117.5 -82.5t-135 -29.5q-124 0 -200 85.5t-76 226.5q0 192 105.5 310t261.5 118q124 0 200 -87t76 -231zM1323 403q0 82 -29.5 120.5t-78.5 38.5q-73 0 -115.5 -65t-42.5 -203 q0 -155 106 -155q73 0 116.5 63t43.5 201z" />
<glyph unicode="&#x26;" horiz-adv-x="1347" d="M787 1496q156 0 249.5 -90t93.5 -239l-145 -28q-13 -3 -24 -3q-38 0 -48 41q-14 61 -51.5 97t-96.5 36q-84 0 -134.5 -64t-50.5 -159q0 -106 79 -211l304 -394q70 127 95 266q11 52 54 52h171q-36 -272 -191 -485l243 -315h-212q-57 0 -86 15t-62 56l-53 69 q-202 -156 -435 -156q-188 0 -295.5 100.5t-107.5 272.5q0 152 91.5 273.5t240.5 190.5q-64 125 -64 250q0 116 52.5 212.5t153 154.5t229.5 58zM335 390q0 -100 53.5 -156t151.5 -56q143 0 268 111l-303 400q-170 -110 -170 -299z" />
<glyph unicode="'" horiz-adv-x="451" d="M654 1480h-212l-36 -295v-161q6 -90 74 -90q41 0 63 22.5t34 67.5l40 161z" />
<glyph unicode="(" horiz-adv-x="565" d="M406 443q0 -152 24 -316.5t70 -285.5q7 -17 7 -36q0 -38 -41 -60l-116 -64q-80 164 -118.5 360t-38.5 384q0 321 87.5 598.5t305.5 581.5l101 -65q28 -21 28 -44q0 -20 -19 -52q-146 -245 -218 -483t-72 -518z" />
<glyph unicode=")" horiz-adv-x="565" d="M272 842q0 152 -24 316.5t-70 285.5q-7 17 -7 36q0 38 41 60l116 65q79 -167 118 -362.5t39 -382.5q0 -321 -87.5 -597.5t-305.5 -581.5l-101 64q-28 21 -28 44q0 20 19 52q146 245 218 483t72 518z" />
<glyph unicode="*" horiz-adv-x="753" d="M606 860h-116l24 189q4 38 20 73q-14 -14 -62 -44l-159 -96l-45 99l159 96q41 24 77 28q-39 6 -70 29l-136 96l70 100l136 -98q43 -34 51 -47q-5 16 -5 42q0 11 2 33l23 190h117l-23 -188q-4 -41 -21 -74q17 18 55 40l166 100l45 -99l-158 -95q-39 -23 -75 -29 q36 -6 68 -28l135 -97l-69 -98l-136 96q-44 35 -51 44q5 -25 5 -43q0 -10 -2 -28z" />
<glyph unicode="+" d="M686 1200h198l-53 -422h402l-23 -181h-400l-52 -424h-199l52 424h-398l23 181h398z" />
<glyph unicode="," horiz-adv-x="460" d="M82 156q0 59 41.5 98.5t105.5 39.5q74 0 114.5 -49.5t40.5 -123.5q0 -102 -60 -215.5t-166 -196.5l-44 40q-19 16 -19 37q0 16 27 46.5t60 76t44 94.5q-64 0 -104 44t-40 109z" />
<glyph unicode="-" horiz-adv-x="679" d="M193 516l24 204h493l-26 -204h-491z" />
<glyph unicode="." horiz-adv-x="460" d="M70 139q0 65 44.5 110t109.5 45t110.5 -45.5t45.5 -109.5q0 -65 -45.5 -109t-110.5 -44t-109.5 44t-44.5 109z" />
<glyph unicode="/" horiz-adv-x="741" d="M779 1490l-713 -1497q-21 -43 -61 -67.5t-79 -24.5h-104l720 1503q43 86 135 86h102z" />
<glyph unicode="0" d="M784 1496q207 0 330.5 -155t123.5 -448q0 -224 -50 -400t-138 -286t-203 -166.5t-250 -56.5q-207 0 -330.5 155t-123.5 448q0 224 50 400t138 286t203 166.5t250 56.5zM630 186q156 0 254.5 180.5t98.5 521.5q0 214 -64.5 309.5t-166.5 95.5q-156 0 -255 -180t-99 -521 q0 -111 19 -192t52 -126.5t73 -66.5t88 -21z" />
<glyph unicode="1" d="M434 0l22 183h302l110 904l20 87l-249 -191q-24 -19 -53 -19q-44 0 -59 28l-62 107l496 384h201l-161 -1300h271l-23 -183h-815z" />
<glyph unicode="2" d="M760 1496q186 0 298 -101.5t112 -268.5q0 -72 -19.5 -139t-47.5 -118t-81 -112.5t-95.5 -102.5t-115.5 -107l-382 -348q109 28 186 28h395q36 0 56 -19t20 -51q0 -9 -19 -157h-1010l10 81q7 59 55 101l508 454q154 137 221 241t67 225q0 90 -52.5 139t-145.5 49 q-90 0 -157.5 -48t-101.5 -129q-28 -71 -97 -71q-9 0 -33 4l-125 22q56 207 205 317.5t349 110.5z" />
<glyph unicode="3" d="M841 1496q184 0 292 -96.5t108 -245.5q0 -156 -70.5 -243.5t-209.5 -125.5q227 -77 227 -302q0 -116 -46.5 -212t-125 -158t-179.5 -95.5t-212 -33.5q-208 0 -318 93.5t-149 296.5l113 44q30 12 59 12q56 0 69 -41q33 -104 90.5 -152.5t157.5 -48.5q135 0 216 86.5 t81 203.5q0 45 -14 78t-48 60t-99 41t-160 14l23 173q185 2 268 68t83 193q0 90 -51.5 137.5t-143.5 47.5t-159.5 -48t-101.5 -129q-28 -71 -96 -71q-8 0 -32 4l-125 22q54 207 203 317.5t350 110.5z" />
<glyph unicode="4" d="M1117 1482l-112 -929h185l-20 -139q-2 -21 -17 -35t-39 -14h-133l-44 -365h-221l44 365h-615q-26 0 -48.5 15.5t-25.5 37.5l-10 124l819 940h237zM783 553l62 503q7 55 26 133l-542 -636h454z" />
<glyph unicode="5" d="M1171 1481l-12 -105q-6 -54 -45.5 -85t-113.5 -31h-413l-95 -322q95 19 181 19q209 0 321 -108.5t112 -283.5q0 -127 -48.5 -236.5t-131.5 -184.5t-196 -117.5t-240 -42.5q-245 0 -410 171l87 105q25 32 66 32q18 0 39.5 -10.5t44 -26t50.5 -31t70.5 -26t91.5 -10.5 q153 0 241.5 98t88.5 248q0 105 -65.5 164.5t-192.5 59.5q-96 0 -220 -36l-147 43l211 716h726z" />
<glyph unicode="6" d="M821 922q164 0 275.5 -102t111.5 -282q0 -114 -44.5 -216t-122 -176.5t-186.5 -118t-232 -43.5q-210 0 -330.5 122.5t-120.5 323.5q0 129 57.5 252.5t177.5 261.5l414 477q22 26 59 42.5t78 16.5h218l-505 -540l-62 -67q95 49 212 49zM403 421q0 -108 62.5 -173.5 t176.5 -65.5q135 0 227.5 91t92.5 226q0 111 -66.5 175t-179.5 64q-135 0 -224 -90t-89 -227z" />
<glyph unicode="7" d="M1398 1481h-1021l-22 -171q0 -21 15 -35.5t37 -14.5h715q-51 -51 -92 -116l-719 -1144h204q29 0 55.5 16t41.5 41l742 1215q24 42 32 112z" />
<glyph unicode="8" d="M597 -16q-211 0 -337.5 104.5t-126.5 276.5q0 316 318 407q-182 81 -182 281q0 189 146.5 316t366.5 127q186 0 301.5 -101.5t115.5 -253.5q0 -133 -66 -228t-195 -144q228 -78 228 -306q0 -216 -160 -347.5t-409 -131.5zM620 175q138 0 216 78t78 206q0 102 -62 156.5 t-171 54.5q-136 0 -214.5 -75t-78.5 -209q0 -95 60.5 -153t171.5 -58zM703 860q71 0 123.5 24t79.5 64t39.5 83.5t12.5 91.5q0 81 -49.5 134.5t-147.5 53.5q-122 0 -188.5 -72.5t-66.5 -181.5q0 -84 48 -140.5t149 -56.5z" />
<glyph unicode="9" d="M752 593q-152 0 -257.5 98t-105.5 271q0 109 43.5 207.5t117.5 170.5t179.5 114t224.5 42q202 0 318.5 -117t116.5 -307q0 -147 -56.5 -267t-173.5 -262l-401 -487q-49 -56 -132 -56h-225l530 575q28 30 76 88q-114 -70 -255 -70zM1157 1070q0 103 -63.5 164.5 t-166.5 61.5q-127 0 -208.5 -85t-81.5 -217q0 -105 57 -161t165 -56q135 0 216.5 83.5t81.5 209.5z" />
<glyph unicode=":" horiz-adv-x="460" d="M70 139q0 65 44.5 110t109.5 45t110.5 -45.5t45.5 -109.5q0 -65 -45.5 -109t-110.5 -44t-109.5 44t-44.5 109zM170 869q0 65 45 110t110 45t110 -45t45 -110t-45 -109t-110 -44t-110 44t-45 109z" />
<glyph unicode=";" horiz-adv-x="460" d="M72 156q0 59 41.5 98.5t105.5 39.5q74 0 114.5 -49.5t40.5 -123.5q0 -101 -60.5 -215t-166.5 -197l-44 40q-18 15 -18 37q0 16 27 46.5t60 76t44 94.5q-64 0 -104 44t-40 109zM173 869q0 65 45 110t110 45q64 0 109.5 -45t45.5 -110t-45 -109t-110 -44t-110 44t-45 109z " />
<glyph unicode="&#x3c;" horiz-adv-x="1092" d="M301 639l12 102l864 423l-23 -180q-5 -44 -52 -66l-395 -191q-50 -23 -110 -37q56 -14 100 -37l350 -191q36 -19 36 -56q0 -1 -23 -191z" />
<glyph unicode="=" d="M258 419l23 181h904l-23 -181h-904zM303 776l23 182h902l-21 -182h-904z" />
<glyph unicode="&#x3e;" horiz-adv-x="1092" d="M1107 741l-12 -102l-864 -423l23 180q5 45 52 67l395 190q50 23 110 37q-56 14 -100 37l-350 192q-36 19 -36 56q0 1 2 18q8 67 21 172z" />
<glyph unicode="?" horiz-adv-x="798" d="M329 1244l-53 102q179 150 383 150q155 0 243 -83.5t88 -211.5q0 -70 -17 -127.5t-45.5 -96.5t-63 -71t-71 -58t-69 -50.5t-57.5 -56.5t-35 -69l-41 -152h-168v168q0 42 19 79t49 66t66.5 57l73 56t66.5 57.5t49 68.5t19 83q0 68 -39 105.5t-112 37.5q-48 0 -90 -13.5 t-66 -29t-47 -29t-36 -13.5q-35 0 -46 31zM326 139q0 65 44 110t110 45q65 0 110.5 -45.5t45.5 -109.5q0 -65 -45.5 -109t-110.5 -44q-66 0 -110 44t-44 109z" />
<glyph unicode="@" horiz-adv-x="1526" d="M1108 188q-68 0 -112.5 34t-55.5 104q-120 -137 -270 -137q-99 0 -151.5 67.5t-52.5 175.5q0 76 23 153.5t70.5 149t113 126.5t158 88.5t198.5 33.5q131 0 223 -45l-138 -379q-30 -76 -30 -139q0 -80 77 -80q61 0 114.5 59.5t86.5 166t33 233.5q0 219 -119 337.5 t-326 118.5q-178 0 -326.5 -100t-235 -277.5t-86.5 -394.5q0 -273 143.5 -422t384.5 -149q246 0 413 96q26 15 49 15q37 0 49 -42l19 -70q-241 -158 -548 -158q-312 0 -499.5 195.5t-187.5 525.5q0 189 68 362.5t181.5 299t270 200.5t325.5 75q166 0 301 -73t216 -214 t81 -325q0 -168 -62 -309t-167.5 -221.5t-230.5 -80.5zM738 347q116 0 187 188l105 290q-27 6 -59 6q-122 0 -218.5 -115t-96.5 -257q0 -53 21 -82.5t61 -29.5z" />
<glyph unicode="A" horiz-adv-x="1313" d="M1193 0l-353 1481h-272l-715 -1481h208q30 0 56.5 17.5t38.5 42.5l137 310h552l61 -310q11 -60 81 -60h206zM376 557l225 506q39 78 74 171q9 -66 32 -170l100 -507h-431z" />
<glyph unicode="B" horiz-adv-x="1228" d="M665 0h-522l183 1481h475q237 0 350 -89t113 -249q0 -132 -72.5 -231.5t-220.5 -149.5q249 -62 249 -284q0 -209 -150 -343.5t-405 -134.5zM738 652h-250l-54 -445h251q138 0 205 71.5t67 196.5q0 177 -219 177zM565 1276l-54 -440h197q139 0 212 65.5t73 196.5 q0 93 -52.5 135.5t-164.5 42.5h-211z" />
<glyph unicode="C" horiz-adv-x="1235" d="M770 209q70 0 126.5 14t90 33.5t58.5 39t44 33.5t34 14q19 0 34 -15l93 -116q-199 -228 -525 -228q-178 0 -309 84t-197.5 228.5t-66.5 331.5q0 188 61.5 351t167.5 276t250.5 177.5t306.5 64.5q289 0 443 -204l-92 -110q-25 -31 -58 -31q-18 0 -43 18.5t-51 40.5 t-82 40.5t-130 18.5q-216 0 -358.5 -170.5t-142.5 -449.5q0 -203 96.5 -322t249.5 -119z" />
<glyph unicode="D" horiz-adv-x="1406" d="M1458 840q0 -243 -102 -435t-283 -298.5t-408 -106.5h-522l183 1481h522q185 0 324.5 -82.5t212.5 -227.5t73 -331zM1186 834q0 201 -96.5 318.5t-268.5 117.5h-255l-130 -1058h255q225 0 360 167.5t135 454.5z" />
<glyph unicode="E" horiz-adv-x="1076" d="M326 1481h863l-27 -212h-596l-51 -421h468l-26 -204h-468l-53 -432h598l-26 -212h-865z" />
<glyph unicode="F" horiz-adv-x="1056" d="M1189 1481l-27 -212h-596l-55 -451h503l-28 -212h-501l-74 -606h-268l183 1481h863z" />
<glyph unicode="G" horiz-adv-x="1358" d="M800 196q145 0 268 60l35 283h-164q-23 0 -36 11.5t-13 30.5l17 157h461l-74 -595q-113 -83 -243 -121t-296 -38q-179 0 -317 84.5t-212 233.5t-74 338q0 184 61 344t166 272.5t252 176.5t314 64q306 0 488 -202l-86 -110q-27 -36 -66 -36q-23 0 -45 14 q-58 39 -89.5 56.5t-90.5 34t-130 16.5q-222 0 -362 -171.5t-140 -449.5q0 -210 102.5 -331.5t273.5 -121.5z" />
<glyph unicode="H" horiz-adv-x="1425" d="M1300 0l184 1481h-267l-80 -642h-624l80 642h-267l-183 -1481h268l79 650h623l-80 -650h267z" />
<glyph unicode="I" horiz-adv-x="593" d="M651 1481l-181 -1481h-267l181 1481h267z" />
<glyph unicode="J" horiz-adv-x="821" d="M780 1481l-118 -968q-31 -251 -161.5 -390t-349.5 -139q-107 0 -206 27l19 156q5 50 54 50q12 0 54.5 -7t79.5 -7q204 0 243 304l119 974h266z" />
<glyph unicode="K" horiz-adv-x="1320" d="M605 1482l-78 -627h58q67 0 106 46l428 522q47 58 126 58h229l-525 -620q-52 -60 -92 -78q56 -22 93 -90l376 -693h-233q-44 0 -66.5 12.5t-35.5 39.5l-305 552q-14 27 -37 38.5t-66 11.5h-80l-81 -654h-264l181 1482h266z" />
<glyph unicode="L" horiz-adv-x="974" d="M591 1481l-156 -1261h539l-26 -220h-805l183 1481h265z" />
<glyph unicode="M" horiz-adv-x="1756" d="M916 592q16 -49 31 -111q22 52 58 111l514 846q17 29 36 36t58 7h202l-183 -1481h-233l119 965q4 32 22 122l-509 -845q-37 -58 -100 -58h-37q-67 0 -87 58l-305 842q-2 -71 -7 -115l-117 -969h-235l183 1481h199q40 0 57 -7t28 -36z" />
<glyph unicode="N" horiz-adv-x="1425" d="M465 1481q35 0 50.5 -8t31.5 -35l576 -1011q4 53 11 111l115 943h235l-184 -1481h-136q-64 0 -88 46l-573 1011q-1 -10 -3.5 -42.5t-4.5 -48.5l-117 -966h-235l183 1481h139z" />
<glyph unicode="O" horiz-adv-x="1499" d="M1556 840q0 -182 -60.5 -341t-165.5 -272t-252.5 -178t-316.5 -65q-184 0 -324 86.5t-212.5 234.5t-72.5 335q0 242 103 438t285 307.5t408 111.5q184 0 323.5 -86.5t212 -235t72.5 -335.5zM1284 834q0 202 -99 323t-270 121q-221 0 -356 -173t-135 -459 q0 -203 97.5 -322.5t269.5 -119.5q224 0 358.5 172t134.5 458z" />
<glyph unicode="P" horiz-adv-x="1182" d="M672 524h-186l-64 -524h-264l181 1481h451q241 0 360.5 -110t119.5 -297q0 -120 -38 -219.5t-111 -173.5t-188 -115.5t-261 -41.5zM764 1276h-184l-68 -545h186q151 0 227.5 86.5t76.5 233.5q0 105 -59.5 165t-178.5 60z" />
<glyph unicode="Q" horiz-adv-x="1499" d="M1556 840q0 -232 -96 -423.5t-263 -302.5l296 -405h-217q-104 0 -147 61l-170 238q-99 -24 -198 -24q-184 0 -324 86.5t-212.5 234.5t-72.5 335q0 242 103 438t285 307.5t408 111.5q184 0 323.5 -86.5t212 -235t72.5 -335.5zM1284 834q0 202 -99 323t-270 121 q-221 0 -356 -173t-135 -459q0 -203 97.5 -322.5t269.5 -119.5q224 0 358.5 172t134.5 458z" />
<glyph unicode="R" horiz-adv-x="1238" d="M598 584h-104l-72 -584h-264l181 1481h421q245 0 363.5 -99t118.5 -269q0 -171 -93.5 -298t-258.5 -179q50 -30 77 -84l264 -552h-239q-68 0 -91 53l-217 481q-12 28 -30.5 39t-55.5 11zM735 1276h-155l-63 -503h154q152 0 229.5 82.5t77.5 215.5q0 98 -61 151.5 t-182 53.5z" />
<glyph unicode="S" horiz-adv-x="1012" d="M1026 1326l-79 -112q-26 -39 -63 -39q-17 0 -42 16.5t-50 36t-71 36t-98 16.5q-110 0 -170.5 -59.5t-60.5 -153.5q0 -44 24 -78t63 -55t89 -42t102 -39t102 -47.5t89 -65t63 -94t24 -132.5q0 -108 -38 -204.5t-106 -169t-170.5 -114.5t-224.5 -42q-129 0 -244 52.5 t-185 141.5l94 127q26 33 63 33q18 0 39 -14t44.5 -34t52.5 -40t73.5 -34t96.5 -14q116 0 181.5 65.5t65.5 181.5q0 55 -30.5 92.5t-79 59.5t-107 41t-117 45.5t-107 63t-79 102.5t-30.5 157q0 95 36 183t100 155.5t160.5 107.5t210.5 40q119 0 218.5 -46t160.5 -124z" />
<glyph unicode="T" horiz-adv-x="1122" d="M1336 1481h-1078l-27 -218h407l-155 -1263h265l155 1263h406z" />
<glyph unicode="U" horiz-adv-x="1370" d="M772 213q142 0 235.5 103t114.5 275l110 890h265l-108 -890q-34 -267 -209.5 -437t-435.5 -170q-235 0 -367.5 140t-132.5 370q0 46 6 97l107 890h267l-110 -889q-4 -35 -4 -74q0 -141 68 -223t194 -82z" />
<glyph unicode="V" horiz-adv-x="1347" d="M615 0l-367 1481h213q34 0 55 -16.5t26 -44.5l197 -922q28 -139 37 -201q33 101 81 201l421 922q10 24 37 42.5t58 18.5h215l-731 -1481h-242z" />
<glyph unicode="W" horiz-adv-x="1979" d="M504 0l-242 1481h209q34 0 55.5 -17t25.5 -44l130 -908q3 -18 10 -151q22 74 54 151l369 908q10 24 36.5 42.5t57.5 18.5h62q34 0 56 -16.5t27 -44.5l147 -908q14 -85 17 -146q28 98 46 146l351 908q9 25 36.5 43t59.5 18h210l-605 -1481h-241l-167 1026q-9 61 -12 91 q-15 -45 -34 -91l-419 -1026h-239z" />
<glyph unicode="X" horiz-adv-x="1291" d="M-150 0l572 791l-333 690h241q26 0 37.5 -7.5t20.5 -26.5l227 -511q9 18 25 43l314 465q24 37 61 37h277l-504 -678l372 -803h-237q-44 0 -65 46l-257 593q-4 -5 -10 -16t-9 -17l-383 -560q-32 -46 -83 -46h-266z" />
<glyph unicode="Y" horiz-adv-x="1241" d="M1482 1481l-608 -904l-71 -577h-266l71 578l-385 903h237q60 0 82 -61l191 -512q24 -62 38 -141q40 81 78 141l318 512q36 61 95 61h220z" />
<glyph unicode="Z" horiz-adv-x="1160" d="M1226 1481h-1013l-26 -212h658l-820 -1125q-25 -32 -29 -63l-10 -81h1040l27 212h-686l818 1122q25 34 29 64z" />
<glyph unicode="[" horiz-adv-x="565" d="M400 -312h-392l233 1894h392l-11 -96q-3 -25 -24 -43.5t-48 -18.5h-124l-196 -1580h127q23 0 39.5 -13t16.5 -35z" />
<glyph unicode="\" horiz-adv-x="739" d="M559 -7l-346 1497h102q44 0 75 -23t40 -63l350 -1503h-102q-41 0 -74.5 24.5t-44.5 67.5z" />
<glyph unicode="]" horiz-adv-x="565" d="M329 -312h-392l12 94q3 27 22.5 44.5t47.5 17.5h126l195 1580h-126q-25 0 -40.5 16t-15.5 39l12 103h392z" />
<glyph unicode="^" d="M1288 796l-382 685h-164l-382 -685h195q47 0 68 42l158 296q31 58 46 106q10 -28 51 -106l161 -296q23 -42 64 -42h185z" />
<glyph unicode="_" horiz-adv-x="743" d="M-179 -141h743l-19 -159h-744z" />
<glyph unicode="`" horiz-adv-x="605" d="M303 1496h-229l202 -267q14 -20 30.5 -27.5t44.5 -7.5h139l-102 249q-12 29 -30 41t-55 12z" />
<glyph unicode="a" horiz-adv-x="1059" d="M1044 1019l-126 -1019h-134q-83 0 -83 76l9 143q-151 -234 -349 -234q-125 0 -204 96.5t-79 277.5q0 187 88.5 349t247 260t349.5 98q162 0 281 -47zM461 191q82 0 156.5 105t121.5 270l40 318q-27 3 -51 3q-110 0 -202 -66.5t-143.5 -177.5t-51.5 -239q0 -213 130 -213z " />
<glyph unicode="b" horiz-adv-x="1101" d="M260 0h-137l185 1522h247l-83 -679q159 224 357 224q136 0 213 -98.5t77 -292.5q0 -176 -69 -335.5t-188 -257.5t-255 -98q-158 0 -250 119l-8 -34q-8 -38 -28 -54t-61 -16zM731 868q-83 0 -167.5 -105.5t-134.5 -265.5l-31 -251q63 -69 169 -69q86 0 156.5 71.5t107 179 t36.5 222.5q0 109 -35 163.5t-101 54.5z" />
<glyph unicode="c" horiz-adv-x="891" d="M909 186q-104 -114 -196 -157.5t-223 -43.5q-181 0 -284.5 118.5t-103.5 319.5q0 170 70 316.5t198 236.5t284 90q102 0 176 -36t133 -111l-81 -97q-24 -24 -47 -24q-15 0 -32 10.5t-33 23t-48 23t-73 10.5q-121 0 -207.5 -124.5t-86.5 -318.5q0 -115 51 -178.5 t139 -63.5q53 0 96.5 17t65.5 37t47 37t46 17q23 0 45 -24z" />
<glyph unicode="d" horiz-adv-x="1103" d="M957 0h-134q-83 0 -83 76l9 153q-78 -116 -172.5 -180t-198.5 -64q-136 0 -213 99t-77 293q0 176 69 335t188 257t255 98q135 0 228 -95l69 550h248zM476 183q82 0 166 104.5t134 263.5l32 255q-63 68 -168 68q-86 0 -156.5 -71.5t-107 -179t-36.5 -222.5 q0 -109 35 -163.5t101 -54.5z" />
<glyph unicode="e" horiz-adv-x="968" d="M990 807q0 -59 -17.5 -105.5t-61.5 -89t-116 -74.5t-184 -57t-264 -40v-13q0 -248 210 -248q62 0 112 18t76 39.5t56 39.5t56 18q28 0 45 -23l65 -77q-112 -112 -216 -161t-244 -49q-184 0 -295.5 119t-111.5 317q0 124 40.5 240.5t111.5 206t177.5 143.5t229.5 54 q79 0 144 -23.5t105 -61t61 -82.5t21 -91zM645 889q-100 0 -172.5 -78t-104.5 -208q123 17 203.5 37.5t121 46.5t55 51t14.5 60t-29.5 63t-87.5 28z" />
<glyph unicode="f" horiz-adv-x="651" d="M727 861h-225l-100 -818l-52 -193q-15 -52 -45.5 -77.5t-84.5 -25.5h-101l134 1114l-81 15q-51 8 -51 53q0 7 13 112h141l10 78q22 179 138.5 283t286.5 104q66 0 120 -19l-22 -131q-6 -33 -82 -33q-87 0 -138 -49.5t-65 -162.5l-8 -70h236z" />
<glyph unicode="g" horiz-adv-x="993" d="M809 746q0 -52 -14 -98t-33.5 -80.5t-39.5 -68t-34 -73.5t-14 -83q0 -37 17 -77.5t38 -72t38 -79.5t17 -97q0 -162 -139 -273.5t-369 -111.5q-191 0 -305 75t-114 193q0 83 43 145.5t115.5 97t154.5 51t173 16.5q80 0 158 -13q-9 40 -9 67q0 61 32 131q-79 -55 -207 -55 q-127 0 -212 82.5t-85 235.5q0 78 29.5 150.5t84 130.5t141 93t191.5 35q121 0 208 -54h294l-12 -82q-8 -55 -50 -66l-107 -28q10 -40 10 -91zM389 493q87 0 138 74t51 170q0 77 -36.5 118t-104.5 41q-88 0 -137 -70t-49 -169q0 -79 35.5 -121.5t102.5 -42.5zM554 -4 q0 27 -5 54q-111 18 -190 18q-131 0 -197 -39t-66 -98q0 -125 201 -125q113 0 185 54t72 136z" />
<glyph unicode="h" horiz-adv-x="1111" d="M376 0h-253l185 1522h252l-79 -651q151 196 349 196q121 0 191 -83t70 -234q0 -23 -6 -81l-78 -669h-253l79 669q5 42 5 65q0 67 -25.5 97t-78.5 30q-80 0 -163.5 -86t-128.5 -224z" />
<glyph unicode="i" horiz-adv-x="527" d="M278 1051h249l-126 -1051h-249zM591 1357q0 -64 -49 -111.5t-111 -47.5q-61 0 -108 47.5t-47 111.5q0 65 48 113.5t108 48.5q63 0 111 -48t48 -114z" />
<glyph unicode="j" horiz-adv-x="518" d="M43 1051h248l-133 -1087q-18 -146 -108.5 -239.5t-244.5 -93.5q-69 0 -127 20l25 136q6 20 19 26t49 6q69 0 99 31.5t40 113.5zM346 1357q0 -64 -49 -111.5t-111 -47.5q-61 0 -107.5 47.5t-46.5 111.5q0 65 47.5 113.5t107.5 48.5q63 0 111 -48t48 -114z" />
<glyph unicode="k" horiz-adv-x="1043" d="M313 1522h250l-106 -872h25q24 0 38.5 7t31.5 27l278 323q39 44 88 44h225l-346 -391q-44 -49 -80 -70q27 -20 57 -80l260 -510h-219q-54 0 -76 45l-203 398q-12 24 -25 31t-42 7h-34l-58 -481h-250z" />
<glyph unicode="l" horiz-adv-x="510" d="M382 0h-249l184 1522h249z" />
<glyph unicode="m" horiz-adv-x="1618" d="M354 0h-248l128 1052h128q84 0 84 -77q0 -3 -5 -121q140 213 327 213q97 0 153 -64.5t65 -186.5q143 251 359 251q118 0 181.5 -79t63.5 -229q0 -50 -5 -90l-79 -669h-250q84 713 84 744q0 61 -20.5 88.5t-66.5 27.5q-77 0 -145.5 -80.5t-111.5 -221.5l-65 -558h-249 l79 669q5 48 5 75q0 62 -20 89t-66 27q-80 0 -148.5 -82.5t-111.5 -228.5z" />
<glyph unicode="n" horiz-adv-x="1102" d="M359 0h-253l126 1052h129q84 0 84 -82l-7 -136q78 116 175 174.5t203 58.5q119 0 188.5 -83t69.5 -234q0 -33 -5 -81l-79 -669h-253q84 710 84 732q0 67 -24 97.5t-77 30.5q-88 0 -174.5 -95.5t-128.5 -248.5z" />
<glyph unicode="o" horiz-adv-x="1044" d="M515 179q123 0 200.5 131t77.5 315q0 127 -43.5 187.5t-132.5 60.5q-123 0 -199.5 -129.5t-76.5 -316.5q0 -128 42.5 -188t131.5 -60zM493 -15q-179 0 -292 117t-113 323q0 179 74.5 327t201 231.5t276.5 83.5q179 0 292.5 -117t113.5 -323q0 -176 -75 -324.5t-202 -233 t-276 -84.5z" />
<glyph unicode="p" horiz-adv-x="1085" d="M268 -343h-245l170 1395h128q37 0 60 -16t23 -48q0 -2 -7 -169q78 117 174 182.5t200 65.5q136 0 213 -98.5t77 -292.5q0 -176 -69 -335.5t-188 -257.5t-255 -98q-139 0 -228 95zM673 868q-83 0 -167 -104t-134 -264l-31 -255q64 -68 168 -68q86 0 156.5 71.5t107 179 t36.5 222.5q0 109 -35 163.5t-101 54.5z" />
<glyph unicode="q" horiz-adv-x="1059" d="M1044 1019l-170 -1362h-163q-39 0 -58 23.5t-19 56.5q0 17 56 453q-144 -205 -329 -205q-125 0 -204 96.5t-79 277.5q0 187 88.5 349t247 260t349.5 98q162 0 281 -47zM461 191q81 0 155 103t121 266l42 325q-38 2 -51 2q-110 0 -202 -66.5t-143.5 -177.5t-51.5 -239 q0 -213 130 -213z" />
<glyph unicode="r" horiz-adv-x="744" d="M354 0h-248l128 1052h128q39 0 61.5 -17t22.5 -52q0 -4 -7 -184q135 259 301 259q39 0 85 -19l-46 -241q-51 21 -97 21q-188 0 -272 -359z" />
<glyph unicode="s" horiz-adv-x="803" d="M808 945l-66 -92q-20 -30 -48 -30q-17 0 -45.5 16.5t-70.5 33.5t-93 17q-79 0 -123 -35.5t-44 -91.5q0 -34 22.5 -59.5t59 -42.5t80.5 -33t88 -37t80.5 -49t59 -74.5t22.5 -107.5q0 -157 -119.5 -266.5t-311.5 -109.5q-97 0 -182 36t-133 93l61 96q23 36 65 36 q18 0 39 -13.5t40.5 -29t57.5 -29t85 -13.5q81 0 127 40.5t46 100.5q0 37 -22.5 64t-59 43t-80 31t-87 34t-80 46t-59 73.5t-22.5 109.5q0 148 110 256.5t295 108.5q186 0 308 -122z" />
<glyph unicode="t" horiz-adv-x="726" d="M238 214q0 44 16 176l58 471h-99q-39 0 -39 43q0 1 1 13q5 40 11 98l160 27l84 287q12 43 57 43h136l-41 -331h254l-22 -180h-255l-56 -458q-15 -128 -15 -132q0 -39 19.5 -61.5t53.5 -22.5q33 0 63.5 17.5t37.5 17.5q19 0 29 -22l54 -123q-114 -93 -263 -93 q-112 0 -176.5 60.5t-67.5 169.5z" />
<glyph unicode="u" horiz-adv-x="1100" d="M248 1051h253q-84 -708 -84 -734q0 -67 24.5 -96.5t76.5 -29.5q83 0 166 86.5t129 228.5l66 545h253l-127 -1051h-128q-37 0 -64 19.5t-27 56.5v4l7 128q-157 -223 -371 -223q-119 0 -188.5 83t-69.5 232q0 46 5 84z" />
<glyph unicode="v" horiz-adv-x="1017" d="M403 0l-262 1051h207q55 0 63 -47l110 -562q15 -75 22 -198q33 115 71 198l251 562q9 21 28.5 34t41.5 13h200l-519 -1051h-213z" />
<glyph unicode="w" horiz-adv-x="1502" d="M336 0l-178 1051h191q27 0 44.5 -13t19.5 -34l61 -562q4 -36 5.5 -100.5t2.5 -74.5q22 63 68 175l228 564q8 21 27 34t41 13h108q54 0 61 -47l88 -564q14 -94 21 -175q28 106 55 175l203 562q7 21 25.5 34t42.5 13h184l-433 -1051h-195q-32 0 -39 45l-101 607 q-6 44 -9 79q-8 -26 -30 -81l-249 -605q-18 -45 -55 -45h-187z" />
<glyph unicode="x" horiz-adv-x="1030" d="M-111 0l417 568l-244 483h230q25 0 36.5 -7t19.5 -25l145 -313q17 34 29 51l185 258q24 36 56 36h229l-369 -484l270 -567h-230q-44 0 -64 46l-161 369q-13 -28 -23 -43l-234 -326q-33 -46 -69 -46h-223z" />
<glyph unicode="y" horiz-adv-x="1017" d="M1153 1051l-694 -1342q-25 -52 -82 -52h-188l234 423l-265 971h212q47 0 60 -47l129 -545q10 -45 15 -105q9 21 26 57.5t22 48.5l259 545q10 21 29 33.5t40 12.5h203z" />
<glyph unicode="z" horiz-adv-x="897" d="M902 1051l-13 -105q-7 -60 -41 -94l-525 -657h461l-22 -195h-764l13 105q6 47 41 88l530 664h-452l24 194h748z" />
<glyph unicode="{" horiz-adv-x="565" d="M160 452q0 52 -24 82t-73 30l18 142q74 0 104.5 61.5t30.5 194.5q0 21 -2.5 82t-2.5 84q0 221 100.5 337.5t302.5 116.5h49l-14 -109q-3 -23 -21 -36t-36 -13h-7q-67 0 -106.5 -48t-47.5 -139q-7 -72 -7.5 -193.5t-5.5 -177.5q-8 -85 -55 -148t-121 -84q58 -21 90.5 -71 t32.5 -116q0 -79 -43 -229.5t-43 -234.5q0 -63 28.5 -101t82.5 -38h8q17 0 31 -10.5t14 -32.5q0 -3 -13 -113h-49q-157 0 -236 78t-79 212q0 92 47 245.5t47 228.5z" />
<glyph unicode="|" horiz-adv-x="614" d="M295 -343v1927h197v-1927h-197z" />
<glyph unicode="}" horiz-adv-x="565" d="M435 818q0 -52 24 -82t72 -30l-17 -142q-74 0 -104.5 -61.5t-30.5 -194.5q0 -21 2.5 -82.5t2.5 -84.5q0 -221 -100 -337t-303 -116h-49l14 109q2 23 21 35.5t36 12.5h7q67 0 106.5 48.5t47.5 139.5q7 72 7.5 193t5.5 177q8 86 55 148t121 85q-58 21 -90.5 70.5 t-32.5 115.5q0 79 43 230t43 235q0 63 -28.5 100.5t-82.5 37.5h-8q-17 0 -31 10.5t-14 32.5q0 4 13 114h49q157 0 236 -78.5t79 -212.5q0 -92 -47 -245t-47 -228z" />
<glyph unicode="~" d="M740 664q58 0 89.5 36.5t31.5 103.5h204q0 -159 -82 -253t-227 -94q-62 0 -132 22.5t-128.5 45.5t-93.5 23q-58 0 -89 -36.5t-31 -103.5h-204q0 159 82 253t227 94q62 0 131.5 -22.5t128 -45.5t93.5 -23z" />
<glyph unicode="&#xa1;" horiz-adv-x="684" d="M482 -345h-220l68 548q16 135 76 372h159q0 -12 0.5 -34.5t0.5 -34.5q0 -158 -17 -303zM369 912q0 65 44.5 110t109.5 45t110.5 -45.5t45.5 -109.5q0 -65 -45.5 -109t-110.5 -44t-109.5 44t-44.5 109z" />
<glyph unicode="&#xa2;" d="M573 -228l45 219q-165 25 -265.5 147t-100.5 312q0 261 158 432t430 181l33 164q5 25 26 43.5t48 18.5h90l-49 -235q152 -27 253 -133l-74 -85q-24 -29 -53 -29q-17 0 -67 25.5t-96 37.5l-144 -700q51 4 95 19.5t68 30.5t48.5 27.5t41.5 12.5q31 0 43 -20l56 -86 q-144 -147 -390 -166l-32 -155q-5 -25 -25.5 -43t-47.5 -18h-91zM493 462q0 -109 42 -180.5t122 -98.5l144 695q-152 -16 -230 -126t-78 -290z" />
<glyph unicode="&#xa3;" d="M933 678q-2 -25 -24 -43.5t-51 -18.5h-391l-25 -210q-16 -134 -99 -219q88 20 160 20h612l-13 -102q-4 -39 -38.5 -72t-78.5 -33h-983l20 154q73 17 111.5 60t49.5 126l34 276h-159l13 99q3 24 24 42t51 18h91l29 247q11 97 54 183t111 151t166 102.5t212 37.5 q165 0 259.5 -70t138.5 -195l-106 -64q-29 -15 -58 -15q-41 0 -62 32q-23 31 -36.5 46t-36.5 31.5t-52 22.5t-71 6q-109 0 -182 -71t-87 -195l-30 -249h458z" />
<glyph unicode="&#xa4;" d="M408 689q0 106 53 195l-156 155l127 125l155 -153q89 56 198 56q106 0 195 -53l156 155l127 -126l-156 -154q57 -90 57 -200q0 -104 -53 -193l156 -156l-128 -126l-155 154q-89 -56 -199 -56q-104 0 -193 53l-156 -156l-127 127l155 153q-56 89 -56 200zM595 689 q0 -78 56 -135t134 -57q79 0 136.5 57t57.5 135q0 81 -57 138t-137 57q-78 0 -134 -57t-56 -138z" />
<glyph unicode="&#xa5;" d="M249 511l16 135h287l-307 834h205q61 0 80 -61l169 -511q21 -62 34 -155q27 82 69 155l293 511q14 26 38.5 43.5t55.5 17.5h206l-513 -834h287l-16 -135h-330l-12 -98h329l-17 -137h-329l-34 -276h-244l34 276h-331l19 137h328l12 98h-329z" />
<glyph unicode="&#xa6;" horiz-adv-x="614" d="M295 756v828h197v-828h-197zM295 -343v827h197v-827h-197z" />
<glyph unicode="&#xa7;" horiz-adv-x="952" d="M975 1366l-65 -88q-22 -30 -51 -30q-19 0 -47 17t-69.5 34t-91.5 17q-80 0 -126.5 -40t-46.5 -99q0 -32 25.5 -60t66 -50t89.5 -45t98 -51t89.5 -61t66 -82.5t25.5 -108.5q0 -203 -185 -288q75 -73 75 -176q0 -165 -116.5 -272t-319.5 -107q-97 0 -184 35.5t-138 92.5 l68 92q23 35 67 35q19 0 40.5 -13t41 -29t58.5 -29t89 -13q82 0 128.5 41t46.5 110q0 40 -26 72t-67 54.5t-90.5 44t-99.5 47.5t-91 58t-67 82t-26 113q0 95 49 167t145 112q-76 78 -76 190q0 150 110.5 253t299.5 103q100 0 179 -34.5t126 -93.5zM365 730q0 -25 12 -48 t29 -39.5t47.5 -35t55 -31t64 -31.5t63.5 -32q82 47 82 135q0 32 -14 57.5t-44 47.5t-57 36.5t-74.5 37t-74.5 37.5q-48 -27 -68.5 -59t-20.5 -75z" />
<glyph unicode="&#xa8;" horiz-adv-x="605" d="M432 1346q0 -58 -42.5 -98t-101.5 -40q-56 0 -97 40.5t-41 97.5q0 59 41 101t97 42q59 0 101.5 -42t42.5 -101zM814 1346q0 -58 -41.5 -98t-100.5 -40q-58 0 -99.5 40.5t-41.5 97.5q0 59 41.5 101t99.5 42q59 0 100.5 -42t41.5 -101z" />
<glyph unicode="&#xa9;" horiz-adv-x="1620" d="M1153 524q24 0 36 -17l84 -89q-119 -150 -349 -150q-202 0 -326 135t-124 340q0 207 134.5 341t335.5 134q205 0 333 -137l-67 -91q-17 -24 -44 -24q-17 0 -41 16t-66 32.5t-103 16.5q-121 0 -189.5 -77t-68.5 -211q0 -135 66 -210.5t172 -75.5q47 0 83 8.5t54 19 t40 22.5t40 17zM166 740q0 154 60 294t161 241.5t241 161.5t293 60q154 0 294 -60t241 -161.5t161 -241.5t60 -294q0 -153 -60 -292.5t-161 -240.5t-241 -161t-294 -60q-153 0 -293 60t-241 161t-161 240.5t-60 292.5zM304 740q0 -175 81.5 -320.5t223 -229.5t312.5 -84 t314 84.5t225.5 230t82.5 319.5q0 175 -82.5 322t-225.5 232t-314 85q-127 0 -241.5 -50t-196.5 -135.5t-130.5 -204t-48.5 -249.5z" />
<glyph unicode="&#xaa;" horiz-adv-x="657" d="M770 861h-82q-24 0 -35 7t-19 29l-7 37q-52 -44 -95.5 -62.5t-101.5 -18.5q-74 0 -116 38t-42 108q0 42 18 79t57.5 70.5t116 54.5t181.5 24l3 43q0 43 -15.5 66t-54.5 23q-45 0 -90.5 -24t-67.5 -24q-30 0 -46 31l-25 58q112 99 267 99q92 0 148.5 -61t56.5 -151 q0 -24 -51 -426zM501 973q61 0 121 56l10 90q-103 -4 -146.5 -29t-43.5 -69q0 -48 59 -48z" />
<glyph unicode="&#xab;" horiz-adv-x="943" d="M441 129l-193 406l5 30l292 405l75 -38q32 -13 32 -45q0 -17 -19 -50l-157 -245q-16 -24 -38 -43q11 -9 27 -41l97 -245q8 -21 8 -36q0 -42 -44 -61zM758 129l-194 406l5 30l292 405l75 -38q33 -13 33 -45q0 -15 -20 -50l-156 -245q-16 -24 -38 -43q9 -8 26 -41l98 -245 q8 -21 8 -36q0 -42 -44 -61z" />
<glyph unicode="&#xac;" d="M307 597l22 181h904l-58 -471h-207l36 290h-697z" />
<glyph unicode="&#xad;" horiz-adv-x="679" d="M193 516l24 204h493l-26 -204h-491z" />
<glyph unicode="&#xae;" horiz-adv-x="1620" d="M162 740q0 206 101 380t274.5 275.5t378.5 101.5q206 0 380 -101.5t275.5 -275.5t101.5 -380q0 -153 -60 -292.5t-161.5 -240.5t-241.5 -161t-294 -60q-205 0 -378.5 101t-274.5 274.5t-101 378.5zM299 740q0 -175 81.5 -320.5t223 -229.5t312.5 -84t314.5 84.5t226 230 t82.5 319.5q0 175 -82.5 322t-226 232t-314.5 85q-128 0 -242.5 -50t-196.5 -135.5t-130 -204t-48 -249.5zM858 616h-56v-332h-219v918h328q370 0 370 -265q0 -94 -48.5 -161t-145.5 -97q22 -12 37 -30.5t33 -50.5l185 -314h-210q-47 0 -64 33l-148 270q-16 29 -62 29z M802 1036v-263h91q100 0 136 32.5t36 103.5q0 68 -31.5 97.5t-122.5 29.5h-109z" />
<glyph unicode="&#xaf;" horiz-adv-x="605" d="M225 1245l20 157h566l-19 -157h-567z" />
<glyph unicode="&#xb0;" horiz-adv-x="802" d="M260 1150q0 147 101.5 248t251.5 101t253 -101.5t103 -247.5q0 -143 -103.5 -245.5t-252.5 -102.5t-251 102.5t-102 245.5zM435 1148q0 -76 51 -127.5t127 -51.5t127 51.5t51 127.5q0 77 -51.5 130t-126.5 53q-76 0 -127 -53t-51 -130z" />
<glyph unicode="&#xb1;" d="M632 1266h197l-45 -366h401l-23 -181h-400l-43 -352h-198l43 352h-397l20 181h400zM88 82l22 181h996l-23 -181h-995z" />
<glyph unicode="&#xb2;" horiz-adv-x="681" d="M620 1687q105 0 163.5 -54.5t58.5 -141.5q0 -36 -11.5 -71t-25 -59t-44.5 -57.5t-48.5 -49.5t-58.5 -53l-154 -140q65 18 110 18h142q52 0 52 -45q0 -2 -4 -41t-4 -41l-4 -30h-552l8 57q6 43 37 69l241 213q138 118 138 212q0 33 -19 53t-52 20q-58 0 -100 -68 q-21 -37 -62 -37q-7 0 -25 2l-95 15q30 113 112 171t197 58z" />
<glyph unicode="&#xb3;" horiz-adv-x="681" d="M680 1687q103 0 162 -53t59 -128q0 -71 -30.5 -116t-99.5 -69q102 -36 102 -138q0 -66 -26.5 -119t-70 -85t-95.5 -49t-107 -17q-113 0 -172 46t-83 158l81 33q17 7 39 7q38 0 49 -28q25 -71 96 -71q51 0 81.5 31t30.5 78q0 44 -31.5 62t-109.5 18l15 122 q87 1 122.5 24.5t35.5 79.5q0 33 -19.5 51.5t-55.5 18.5q-70 0 -100 -63q-13 -22 -25.5 -30.5t-32.5 -8.5q-7 0 -25 2l-89 15q30 112 110.5 170.5t188.5 58.5z" />
<glyph unicode="&#xb4;" horiz-adv-x="605" d="M1021 1496h-237q-37 0 -58 -12t-40 -41l-164 -249h146q28 0 46 7t39 28z" />
<glyph unicode="&#xb5;" horiz-adv-x="1075" d="M181 1050h244q-46 -372 -78 -634q-7 -57 -8.5 -68t-1.5 -14q0 -77 34.5 -118t102.5 -41q105 0 217 107l96 768h243l-129 -1050h-149q-47 0 -56 45l-7 83q-67 -62 -124 -88.5t-127 -26.5q-102 0 -165 66q2 -13 2 -55q0 -53 -7 -116l-30 -253h-121q-46 0 -71.5 22.5 t-25.5 62.5q0 3 2 17z" />
<glyph unicode="&#xb6;" horiz-adv-x="1434" d="M717 1481h902l-26 -212h-220l-182 -1483h-220l181 1483h-241l-181 -1483h-221l105 859q-191 0 -305 102.5t-114 266.5q0 95 38.5 180.5t105.5 149t165.5 100.5t212.5 37z" />
<glyph unicode="&#xb7;" horiz-adv-x="572" d="M227 609q0 80 57 136.5t136 56.5q82 0 138 -56t56 -137q0 -79 -56.5 -134.5t-137.5 -55.5q-79 0 -136 56t-57 134z" />
<glyph unicode="&#xb8;" horiz-adv-x="605" d="M108 -236q6 0 28 -8t43 -8q30 0 47.5 15t17.5 38q0 26 -29 39.5t-99 22.5l60 151h153l-29 -73q136 -36 136 -132q0 -76 -71 -121t-183 -45q-71 0 -137 24l34 76q7 21 29 21z" />
<glyph unicode="&#xb9;" horiz-adv-x="681" d="M444 922l17 127h142l44 365l11 50l-90 -65q-19 -13 -37 -13q-23 0 -39 20l-46 76l262 197h147l-78 -630h106l-16 -127h-423z" />
<glyph unicode="&#xba;" horiz-adv-x="734" d="M626 1498q124 0 198 -75t74 -201q0 -169 -98.5 -271t-252.5 -102q-127 0 -202 75t-75 204q0 167 100 268.5t256 101.5zM564 991q145 0 145 231q0 134 -101 134q-83 0 -115.5 -59.5t-32.5 -171.5q0 -134 104 -134z" />
<glyph unicode="&#xbb;" horiz-adv-x="943" d="M631 565l-192 405l-84 -38q-45 -20 -45 -63q0 -15 6 -32l100 -245q7 -26 25 -43q-14 -11 -35 -41l-159 -245q-18 -31 -18 -51q0 -31 32 -46l75 -37l292 406zM947 565l-191 405l-84 -38q-45 -20 -45 -63q0 -15 6 -32l99 -245q7 -24 26 -43q-16 -12 -36 -41l-159 -245 q-17 -29 -17 -51q0 -31 32 -46l74 -37l292 406z" />
<glyph unicode="&#xbc;" horiz-adv-x="1510" d="M1624 1480l-969 -1407q-51 -73 -133 -73h-100l960 1396q59 84 142 84h100zM1573 757l-56 -455h97l-11 -102q-2 -13 -12.5 -23t-25.5 -10h-65l-20 -167h-148l21 167h-297q-23 0 -35.5 10.5t-13.5 26.5l-8 87l405 466h169zM369 723l16 127h142l43 359q4 33 13 57l-90 -66 q-17 -12 -36 -12q-29 0 -44 25l-42 70l261 198h147l-78 -631h106l-15 -127h-423zM1370 302l21 167q8 65 21 114l-237 -281h195z" />
<glyph unicode="&#xbd;" horiz-adv-x="1510" d="M1597 1480l-968 -1407q-51 -73 -133 -73h-101l961 1396q59 84 141 84h100zM1390 765q105 0 163.5 -54.5t58.5 -141.5q0 -26 -6 -51.5t-13 -44.5t-25 -44t-28 -37.5t-37 -39t-37 -35t-42 -37.5l-154 -141q69 19 110 19h142q52 0 52 -45q0 -3 -3 -30l-9 -83h-552l8 57 q6 43 37 69l241 213q138 118 138 212q0 33 -19 53.5t-52 20.5q-61 0 -100 -69q-19 -37 -61 -37q-11 0 -32 3l-89 15q30 113 112 170.5t197 57.5zM383 723l16 127h143l43 359q5 37 12 57l-90 -66q-17 -12 -36 -12q-29 0 -44 25l-42 70l261 198h148l-78 -631h105l-15 -127 h-423z" />
<glyph unicode="&#xbe;" horiz-adv-x="1510" d="M1592 1480l-968 -1407q-51 -73 -134 -73h-100l961 1396q59 84 141 84h100zM1537 757l-56 -455h97l-11 -102q-2 -13 -12.5 -23t-25.5 -10h-65l-20 -167h-148l21 167h-297q-23 0 -35.5 10.5t-13.5 26.5l-7 87l404 466h169zM633 1488q103 0 162 -52.5t59 -127.5 q0 -71 -30.5 -116.5t-99.5 -69.5q102 -36 102 -138q0 -87 -46 -150t-112 -91t-141 -28q-113 0 -172 46t-83 158l81 32q22 8 39 8q39 0 49 -28q27 -72 96 -72q51 0 81.5 31.5t30.5 78.5q0 44 -31.5 62t-109.5 18l15 121q87 1 122.5 24.5t35.5 79.5q0 33 -19.5 52t-55.5 19 q-68 0 -100 -64q-18 -39 -57 -39q-16 0 -38 4l-77 14q30 112 110.5 170t188.5 58zM1334 302l21 167q8 65 21 114l-237 -281h195z" />
<glyph unicode="&#xbf;" horiz-adv-x="798" d="M620 -106l52 -104q-185 -149 -383 -149q-152 0 -241 79.5t-89 217.5q0 78 23.5 140.5t58.5 100.5t78.5 72.5t82 57.5t69.5 53.5t40 62.5l42 150h166v-167q0 -43 -23.5 -81t-58.5 -65t-76.5 -58t-76.5 -60t-58.5 -71t-23.5 -90q0 -69 38 -107.5t95 -38.5q48 0 90.5 13.5 t66 29t46 29t35.5 13.5q35 0 47 -28zM315 913q0 65 44.5 110t110.5 45q65 0 110.5 -45.5t45.5 -109.5q0 -65 -45.5 -109t-110.5 -44q-66 0 -110.5 44t-44.5 109z" />
<glyph unicode="&#xc0;" horiz-adv-x="1313" d="M1193 0l-353 1481h-272l-715 -1481h208q30 0 56.5 17.5t38.5 42.5l137 310h552l61 -310q11 -60 81 -60h206zM376 557l225 506q39 78 74 171q9 -66 32 -170l100 -507h-431zM607 1832h-271l239 -211q22 -20 36.5 -27.5t40.5 -7.5h207l-157 207q-22 24 -39.5 31.5t-55.5 7.5 z" />
<glyph unicode="&#xc1;" horiz-adv-x="1313" d="M1193 0l-353 1481h-272l-715 -1481h208q30 0 56.5 17.5t38.5 42.5l137 310h552l61 -310q11 -60 81 -60h206zM376 557l225 506q39 78 74 171q9 -66 32 -170l100 -507h-431zM1157 1832h-269q-41 0 -61.5 -7.5t-44.5 -31.5l-209 -207h198q48 0 95 35z" />
<glyph unicode="&#xc2;" horiz-adv-x="1313" d="M1193 0l-353 1481h-272l-715 -1481h208q30 0 56.5 17.5t38.5 42.5l137 310h552l61 -310q11 -60 81 -60h206zM376 557l225 506q39 78 74 171q9 -66 32 -170l100 -507h-431zM1062 1586l-201 223h-244l-255 -223h184q39 0 62 17l100 71l16 15q4 -5 14 -15l81 -71 q32 -17 58 -17h185z" />
<glyph unicode="&#xc3;" horiz-adv-x="1313" d="M1193 0l-353 1481h-272l-715 -1481h208q30 0 56.5 17.5t38.5 42.5l137 310h552l61 -310q11 -60 81 -60h206zM376 557l225 506q39 78 74 171q9 -66 32 -170l100 -507h-431zM851 1736q26 0 42.5 16.5t20.5 48.5h134q-12 -101 -68.5 -163t-141.5 -62q-50 0 -122 37.5 t-93 37.5q-25 0 -42 -18.5t-21 -51.5h-135q12 101 69.5 164t140.5 63q39 0 82.5 -18t78.5 -36t55 -18z" />
<glyph unicode="&#xc4;" horiz-adv-x="1313" d="M1193 0l-353 1481h-272l-715 -1481h208q30 0 56.5 17.5t38.5 42.5l137 310h552l61 -310q11 -60 81 -60h206zM376 557l225 506q39 78 74 171q9 -66 32 -170l100 -507h-431zM649 1706q0 -50 -37 -85.5t-89 -35.5q-50 0 -86 36t-36 85q0 52 36 88.5t86 36.5q52 0 89 -36.5 t37 -88.5zM1009 1706q0 -50 -36 -85.5t-88 -35.5q-51 0 -87 35.5t-36 85.5q0 52 36 88.5t87 36.5q52 0 88 -36.5t36 -88.5z" />
<glyph unicode="&#xc5;" horiz-adv-x="1313" d="M1193 0l-353 1481h-272l-715 -1481h208q30 0 56.5 17.5t38.5 42.5l137 310h552l61 -310q11 -60 81 -60h206zM376 557l225 506q39 78 74 171q9 -66 32 -170l100 -507h-431zM502 1723q0 85 62.5 140.5t148.5 55.5q89 0 152 -55t63 -141q0 -84 -63 -138t-152 -54 q-86 0 -148.5 54t-62.5 138zM624 1723q0 -41 24 -66t68 -25q40 0 65.5 25.5t25.5 65.5q0 42 -25 67.5t-66 25.5q-44 0 -68 -25t-24 -68z" />
<glyph unicode="&#xc6;" horiz-adv-x="1752" d="M-195 0l859 1481h1031l-26 -212h-658v-422h478l-26 -204h-452v-431h528l-27 -212h-752v370h-478l-169 -310q-13 -25 -41 -42.5t-60 -17.5h-207zM684 1104l-300 -547h376v707q-44 -108 -76 -160z" />
<glyph unicode="&#xc7;" horiz-adv-x="1235" d="M584 -236q6 0 28 -8t43 -8q30 0 47.5 15t17.5 38q0 26 -29 39.5t-99 22.5l50 126q-230 28 -360 203t-130 436q0 188 61.5 351t167.5 276t250.5 177.5t306.5 64.5q289 0 443 -204l-92 -110q-25 -31 -58 -31q-18 0 -43 18.5t-51 40.5t-82 40.5t-130 18.5 q-216 0 -358.5 -170.5t-142.5 -449.5q0 -203 96.5 -322t249.5 -119q70 0 126.5 14t90 33.5t58.5 39t44 33.5t34 14q19 0 34 -15l93 -116q-179 -203 -456 -225l-18 -46q136 -36 136 -132q0 -76 -71 -121t-183 -45q-71 0 -137 24l34 76q7 21 29 21z" />
<glyph unicode="&#xc8;" horiz-adv-x="1076" d="M326 1481h863l-27 -212h-596l-51 -421h468l-26 -204h-468l-53 -432h598l-26 -212h-865zM667 1832h-272l240 -211q22 -20 36.5 -27.5t40.5 -7.5h207l-157 207q-22 24 -39.5 31.5t-55.5 7.5z" />
<glyph unicode="&#xc9;" horiz-adv-x="1076" d="M326 1481h863l-27 -212h-596l-51 -421h468l-26 -204h-468l-53 -432h598l-26 -212h-865zM1193 1832h-269q-41 0 -61.5 -7.5t-44.5 -31.5l-209 -207h198q48 0 95 35z" />
<glyph unicode="&#xca;" horiz-adv-x="1076" d="M326 1481h863l-27 -212h-596l-51 -421h468l-26 -204h-468l-53 -432h598l-26 -212h-865zM1121 1586l-200 223h-244l-255 -223h183q40 0 63 17l99 71l16 15q2 -2 4.5 -5t6 -6t4.5 -4l81 -71q32 -17 57 -17h185z" />
<glyph unicode="&#xcb;" horiz-adv-x="1076" d="M326 1481h863l-27 -212h-596l-51 -421h468l-26 -204h-468l-53 -432h598l-26 -212h-865zM709 1706q0 -50 -37 -85.5t-89 -35.5q-50 0 -86 36t-36 85q0 52 36 88.5t86 36.5q52 0 89 -36.5t37 -88.5zM1068 1706q0 -50 -36 -85.5t-88 -35.5q-51 0 -87 35.5t-36 85.5 q0 52 36 88.5t87 36.5q52 0 88 -36.5t36 -88.5z" />
<glyph unicode="&#xcc;" horiz-adv-x="593" d="M603 1481l-181 -1481h-267l181 1481h267zM378 1832h-272l240 -211q22 -20 36.5 -27.5t40.5 -7.5h207l-157 207q-22 24 -39.5 31.5t-55.5 7.5z" />
<glyph unicode="&#xcd;" horiz-adv-x="593" d="M651 1481l-181 -1481h-267l181 1481h267zM952 1832h-269q-40 0 -60.5 -7.5t-44.5 -31.5l-209 -207h197q49 0 96 35z" />
<glyph unicode="&#xce;" horiz-adv-x="593" d="M630 1481l-181 -1481h-268l181 1481h268zM859 1586l-201 223h-243l-255 -223h183q40 0 63 17l99 71l16 15q2 -2 4.5 -5t6 -6t4.5 -4l80 -71q32 -17 58 -17h185z" />
<glyph unicode="&#xcf;" horiz-adv-x="593" d="M651 1481l-181 -1481h-267l181 1481h267zM468 1706q0 -50 -37 -85.5t-89 -35.5q-50 0 -86 36t-36 85q0 52 36 88.5t86 36.5q52 0 89 -36.5t37 -88.5zM827 1706q0 -50 -36 -85.5t-88 -35.5q-51 0 -86.5 35.5t-35.5 85.5q0 52 35.5 88.5t86.5 36.5q52 0 88 -36.5t36 -88.5z " />
<glyph unicode="&#xd0;" horiz-adv-x="1489" d="M139 669l21 151h166l81 661h522q185 0 324.5 -82.5t212.5 -227.5t73 -331q0 -243 -102 -435t-282 -298.5t-406 -106.5h-523l81 669h-168zM1267 834q0 201 -96.5 318.5t-267.5 117.5h-255l-55 -450h337l-18 -151h-338l-55 -457h255q225 0 359 167.5t134 454.5z" />
<glyph unicode="&#xd1;" horiz-adv-x="1425" d="M465 1481q35 0 50.5 -8t31.5 -35l576 -1011q4 53 11 111l115 943h235l-184 -1481h-136q-64 0 -88 46l-573 1011q-1 -10 -3.5 -42.5t-4.5 -48.5l-117 -966h-235l183 1481h139zM1047 1736q26 0 42.5 16.5t20.5 48.5h133q-12 -101 -68.5 -163t-141.5 -62q-50 0 -122 37.5 t-93 37.5q-25 0 -41.5 -18.5t-20.5 -51.5h-135q12 102 69 164.5t140 62.5q39 0 82.5 -18t79 -36t55.5 -18z" />
<glyph unicode="&#xd2;" horiz-adv-x="1499" d="M1556 840q0 -182 -60.5 -341t-165.5 -272t-252.5 -178t-316.5 -65q-184 0 -324 86.5t-212.5 234.5t-72.5 335q0 242 103 438t285 307.5t408 111.5q184 0 323.5 -86.5t212 -235t72.5 -335.5zM1284 834q0 202 -99 323t-270 121q-221 0 -356 -173t-135 -459 q0 -203 97.5 -322.5t269.5 -119.5q224 0 358.5 172t134.5 458zM847 1832h-272l240 -211q22 -20 36.5 -27.5t40.5 -7.5h207l-157 207q-22 24 -39.5 31.5t-55.5 7.5z" />
<glyph unicode="&#xd3;" horiz-adv-x="1499" d="M1556 840q0 -182 -60.5 -341t-165.5 -272t-252.5 -178t-316.5 -65q-184 0 -324 86.5t-212.5 234.5t-72.5 335q0 242 103 438t285 307.5t408 111.5q184 0 323.5 -86.5t212 -235t72.5 -335.5zM1284 834q0 202 -99 323t-270 121q-221 0 -356 -173t-135 -459 q0 -203 97.5 -322.5t269.5 -119.5q224 0 358.5 172t134.5 458zM1373 1832h-269q-41 0 -61.5 -7.5t-44.5 -31.5l-208 -207h197q48 0 95 35z" />
<glyph unicode="&#xd4;" horiz-adv-x="1499" d="M1556 840q0 -182 -60.5 -341t-165.5 -272t-252.5 -178t-316.5 -65q-184 0 -324 86.5t-212.5 234.5t-72.5 335q0 242 103 438t285 307.5t408 111.5q184 0 323.5 -86.5t212 -235t72.5 -335.5zM1284 834q0 202 -99 323t-270 121q-221 0 -356 -173t-135 -459 q0 -203 97.5 -322.5t269.5 -119.5q224 0 358.5 172t134.5 458zM1302 1586l-201 223h-244l-255 -223h183q40 0 63 17l99 71l17 15q4 -5 14 -15l81 -71q32 -17 57 -17h186z" />
<glyph unicode="&#xd5;" horiz-adv-x="1499" d="M1556 840q0 -182 -60.5 -341t-165.5 -272t-252.5 -178t-316.5 -65q-184 0 -324 86.5t-212.5 234.5t-72.5 335q0 242 103 438t285 307.5t408 111.5q184 0 323.5 -86.5t212 -235t72.5 -335.5zM1284 834q0 202 -99 323t-270 121q-221 0 -356 -173t-135 -459 q0 -203 97.5 -322.5t269.5 -119.5q224 0 358.5 172t134.5 458zM1091 1736q26 0 42.5 16.5t20.5 48.5h133q-12 -101 -68.5 -163t-141.5 -62q-50 0 -122 37.5t-93 37.5q-25 0 -41.5 -18.5t-20.5 -51.5h-135q12 102 69 164.5t140 62.5q39 0 82.5 -18t79 -36t55.5 -18z" />
<glyph unicode="&#xd6;" horiz-adv-x="1499" d="M1556 840q0 -182 -60.5 -341t-165.5 -272t-252.5 -178t-316.5 -65q-184 0 -324 86.5t-212.5 234.5t-72.5 335q0 242 103 438t285 307.5t408 111.5q184 0 323.5 -86.5t212 -235t72.5 -335.5zM1284 834q0 202 -99 323t-270 121q-221 0 -356 -173t-135 -459 q0 -203 97.5 -322.5t269.5 -119.5q224 0 358.5 172t134.5 458zM889 1706q0 -50 -37 -85.5t-89 -35.5q-50 0 -86 36t-36 85q0 52 36 88.5t86 36.5q52 0 89 -36.5t37 -88.5zM1248 1706q0 -50 -36 -85.5t-88 -35.5q-51 0 -87 35.5t-36 85.5q0 52 36 88.5t87 36.5q52 0 88 -36.5 t36 -88.5z" />
<glyph unicode="&#xd7;" d="M1098 1151l113 -128l-376 -335l307 -350l-144 -128l-308 350l-395 -352l-113 128l396 352l-295 337l144 128l295 -337z" />
<glyph unicode="&#xd8;" horiz-adv-x="1499" d="M1503 840q0 -182 -60.5 -341t-165.5 -272t-252.5 -178t-316.5 -65q-177 0 -319 82l-85 -108q-59 -72 -154 -72h-105l221 280q-168 182 -168 474q0 242 103 438t285.5 307.5t408.5 111.5q199 0 344 -100l67 84q30 38 53 51.5t64 13.5h137l-204 -257q147 -183 147 -449z M371 646q0 -159 61 -270l654 827q-94 75 -224 75q-221 0 -356 -173t-135 -459zM1231 834q0 135 -46 238l-644 -815q81 -53 196 -53q224 0 359 172t135 458z" />
<glyph unicode="&#xd9;" horiz-adv-x="1370" d="M772 213q142 0 235.5 103t114.5 275l110 890h265l-108 -890q-34 -267 -209.5 -437t-435.5 -170q-235 0 -367.5 140t-132.5 370q0 46 6 97l107 890h267l-110 -889q-4 -35 -4 -74q0 -141 68 -223t194 -82zM833 1831h-272l240 -211q22 -20 36.5 -27.5t40.5 -7.5h206 l-156 207q-22 24 -39.5 31.5t-55.5 7.5z" />
<glyph unicode="&#xda;" horiz-adv-x="1370" d="M772 213q142 0 235.5 103t114.5 275l110 890h265l-108 -890q-34 -267 -209.5 -437t-435.5 -170q-235 0 -367.5 140t-132.5 370q0 46 6 97l107 890h267l-110 -889q-4 -35 -4 -74q0 -141 68 -223t194 -82zM1359 1831h-269q-41 0 -61.5 -7.5t-44.5 -31.5l-209 -207h198 q48 0 95 35z" />
<glyph unicode="&#xdb;" horiz-adv-x="1370" d="M772 213q142 0 235.5 103t114.5 275l110 890h265l-108 -890q-34 -267 -209.5 -437t-435.5 -170q-235 0 -367.5 140t-132.5 370q0 46 6 97l107 890h267l-110 -889q-4 -35 -4 -74q0 -141 68 -223t194 -82zM1287 1585l-201 223h-243l-255 -223h183q40 0 63 17l99 71l16 15 l15 -15l80 -71q32 -17 58 -17h185z" />
<glyph unicode="&#xdc;" horiz-adv-x="1370" d="M772 213q142 0 235.5 103t114.5 275l110 890h265l-108 -890q-34 -267 -209.5 -437t-435.5 -170q-235 0 -367.5 140t-132.5 370q0 46 6 97l107 890h267l-110 -889q-4 -35 -4 -74q0 -141 68 -223t194 -82zM874 1705q0 -50 -36.5 -85.5t-88.5 -35.5q-50 0 -86 36t-36 85 q0 52 36 88.5t86 36.5q52 0 88.5 -36.5t36.5 -88.5zM1234 1705q0 -50 -36 -85.5t-88 -35.5q-51 0 -87 35.5t-36 85.5q0 52 36 88.5t87 36.5q52 0 88 -36.5t36 -88.5z" />
<glyph unicode="&#xdd;" horiz-adv-x="1241" d="M1482 1481l-608 -904l-71 -577h-266l71 578l-385 903h237q60 0 82 -61l191 -512q24 -62 38 -141q40 81 78 141l318 512q36 61 95 61h220zM1306 1830h-270q-40 0 -60.5 -7.5t-44.5 -31.5l-209 -207h198q48 0 95 35z" />
<glyph unicode="&#xde;" horiz-adv-x="1182" d="M728 1481l-32 -258h187q239 0 359 -110.5t120 -294.5q0 -120 -38 -220t-111.5 -173.5t-188 -114.5t-260.5 -41h-186l-33 -269h-264l181 1481h266zM856 1017h-185l-68 -542h188q152 0 228 87t76 234q0 104 -60 162.5t-179 58.5z" />
<glyph unicode="&#xdf;" horiz-adv-x="1185" d="M822 1505q99 0 175 -30.5t117.5 -79t62 -101t20.5 -105.5q0 -64 -22 -115.5t-54.5 -82.5t-70.5 -59.5t-70.5 -49t-54.5 -48.5t-22 -59q0 -28 20.5 -53.5t51.5 -44.5t67 -46.5t67 -57.5t51.5 -80t20.5 -112q0 -94 -35 -170.5t-94 -125t-134 -75t-157 -26.5 q-84 0 -161 35.5t-130 93.5l69 93q25 34 66 34q18 0 39.5 -13.5t39.5 -29.5t50 -29.5t69 -13.5q60 0 102 46.5t42 114.5q0 46 -31.5 81.5t-76.5 61.5t-90 54.5t-76.5 77t-31.5 113.5q0 56 17.5 101.5t46 77t62.5 59t68 52t62.5 50.5t46 61t17.5 77q0 64 -42.5 105.5 t-128.5 41.5q-78 0 -142.5 -60t-102 -152.5t-50.5 -202.5l-106 -870l-52 -193q-15 -52 -45.5 -77.5t-84.5 -25.5h-102l136 1114l-94 17q-55 11 -55 52l11 108h170q38 126 114.5 230t191 170.5t243.5 66.5z" />
<glyph unicode="&#xe0;" horiz-adv-x="1059" d="M1044 1019l-126 -1019h-134q-83 0 -83 76l9 143q-151 -234 -349 -234q-125 0 -204 96.5t-79 277.5q0 187 88.5 349t247 260t349.5 98q162 0 281 -47zM461 191q82 0 156.5 105t121.5 270l40 318q-27 3 -51 3q-110 0 -202 -66.5t-143.5 -177.5t-51.5 -239q0 -213 130 -213z M693 1496h-229l203 -267q14 -20 30 -27.5t44 -7.5h140l-103 249q-12 29 -30 41t-55 12z" />
<glyph unicode="&#xe1;" horiz-adv-x="1059" d="M1044 1019l-126 -1019h-134q-83 0 -83 76l9 143q-151 -234 -349 -234q-125 0 -204 96.5t-79 277.5q0 187 88.5 349t247 260t349.5 98q162 0 281 -47zM461 191q82 0 156.5 105t121.5 270l40 318q-27 3 -51 3q-110 0 -202 -66.5t-143.5 -177.5t-51.5 -239q0 -213 130 -213z M1104 1496h-237q-37 0 -58 -12t-40 -41l-164 -249h146q28 0 46 7t39 28z" />
<glyph unicode="&#xe2;" horiz-adv-x="1059" d="M1044 1019l-126 -1019h-134q-83 0 -83 76l9 143q-151 -234 -349 -234q-125 0 -204 96.5t-79 277.5q0 187 88.5 349t247 260t349.5 98q162 0 281 -47zM461 191q82 0 156.5 105t121.5 270l40 318q-27 3 -51 3q-110 0 -202 -66.5t-143.5 -177.5t-51.5 -239q0 -213 130 -213z M1059 1196l-181 284h-230l-252 -284h169q29 0 51 18l111 102q10 8 23 20q9 -12 17 -20l83 -102q16 -18 47 -18h162z" />
<glyph unicode="&#xe3;" horiz-adv-x="1059" d="M1044 1019l-126 -1019h-134q-83 0 -83 76l9 143q-151 -234 -349 -234q-125 0 -204 96.5t-79 277.5q0 187 88.5 349t247 260t349.5 98q162 0 281 -47zM461 191q82 0 156.5 105t121.5 270l40 318q-27 3 -51 3q-110 0 -202 -66.5t-143.5 -177.5t-51.5 -239q0 -213 130 -213z M854 1388q57 0 69 78h147q-14 -112 -77.5 -179.5t-150.5 -67.5q-39 0 -77.5 21.5t-69.5 42.5t-50 21q-56 0 -66 -80h-150q14 111 78 180t150 69q39 0 78 -21.5t69.5 -42.5t49.5 -21z" />
<glyph unicode="&#xe4;" horiz-adv-x="1059" d="M1044 1019l-126 -1019h-134q-83 0 -83 76l9 143q-151 -234 -349 -234q-125 0 -204 96.5t-79 277.5q0 187 88.5 349t247 260t349.5 98q162 0 281 -47zM461 191q82 0 156.5 105t121.5 270l40 318q-27 3 -51 3q-110 0 -202 -66.5t-143.5 -177.5t-51.5 -239q0 -213 130 -213z M697 1346q0 -58 -42.5 -98t-101.5 -40q-56 0 -97 40.5t-41 97.5q0 59 41 101t97 42q59 0 101.5 -42t42.5 -101zM1079 1346q0 -58 -41.5 -98t-100.5 -40q-58 0 -99 40t-41 98q0 59 41 101t99 42q59 0 100.5 -42t41.5 -101z" />
<glyph unicode="&#xe5;" horiz-adv-x="1059" d="M1044 1019l-126 -1019h-134q-83 0 -83 76l9 143q-151 -234 -349 -234q-125 0 -204 96.5t-79 277.5q0 187 88.5 349t247 260t349.5 98q162 0 281 -47zM461 191q82 0 156.5 105t121.5 270l40 318q-27 3 -51 3q-110 0 -202 -66.5t-143.5 -177.5t-51.5 -239q0 -213 130 -213z M539 1357q0 92 66.5 151.5t159.5 59.5q95 0 163 -59.5t68 -151.5q0 -90 -68 -148t-163 -58q-93 0 -159.5 58t-66.5 148zM676 1357q0 -40 24.5 -65.5t68.5 -25.5q40 0 65 26t25 65q0 43 -24.5 68t-65.5 25q-44 0 -68.5 -25t-24.5 -68z" />
<glyph unicode="&#xe6;" horiz-adv-x="1495" d="M1161 1066q130 0 219 -78.5t89 -190.5q0 -49 -15 -91.5t-56.5 -86t-107 -75t-174.5 -53t-252 -24.5q0 -287 210 -287q62 0 112 18t76.5 39.5t56 39.5t55.5 18q28 0 45 -23l65 -77q-112 -112 -216 -161t-244 -49q-102 0 -183.5 51.5t-126.5 152.5q-66 -103 -168 -154 t-211 -51q-151 0 -227.5 64.5t-76.5 188.5q0 57 18 108.5t63 101.5t114 86.5t178 60.5t248 28q8 70 8 96q0 156 -133 156q-50 0 -93.5 -14.5t-68.5 -32.5t-55 -32.5t-55 -14.5q-47 0 -66 44l-33 79q185 166 399 166q203 0 264 -160q136 157 342 157zM628 425l5 47 q-203 -9 -285 -61.5t-82 -143.5q0 -116 116 -116q96 0 162 68.5t84 205.5zM1129 890q-102 0 -166 -74t-87 -205q146 12 231.5 39t113.5 58.5t28 75.5q0 48 -30.5 77t-89.5 29z" />
<glyph unicode="&#xe7;" horiz-adv-x="891" d="M345 -236q7 0 29 -8t43 -8q30 0 47 15t17 38q0 26 -29 39.5t-99 22.5l51 130q-143 27 -222.5 141t-79.5 289q0 170 70 316.5t198 236.5t284 90q102 0 176 -36t133 -111l-81 -97q-20 -24 -47 -24q-15 0 -32 10.5t-33 23t-48 23t-73 10.5q-121 0 -207.5 -124.5 t-86.5 -318.5q0 -115 51 -178.5t139 -63.5q53 0 96.5 17t65.5 37t47 37t46 17q26 0 45 -24l64 -78q-89 -99 -170.5 -144.5t-182.5 -53.5l-18 -47q136 -36 136 -132q0 -76 -71 -121t-183 -45q-71 0 -137 24l33 76q8 21 29 21z" />
<glyph unicode="&#xe8;" horiz-adv-x="968" d="M990 807q0 -59 -17.5 -105.5t-61.5 -89t-116 -74.5t-184 -57t-264 -40v-13q0 -248 210 -248q62 0 112 18t76 39.5t56 39.5t56 18q28 0 45 -23l65 -77q-112 -112 -216 -161t-244 -49q-184 0 -295.5 119t-111.5 317q0 124 40.5 240.5t111.5 206t177.5 143.5t229.5 54 q79 0 144 -23.5t105 -61t61 -82.5t21 -91zM645 889q-100 0 -172.5 -78t-104.5 -208q123 17 203.5 37.5t121 46.5t55 51t14.5 60t-29.5 63t-87.5 28zM587 1496h-230l203 -267q14 -20 30.5 -27.5t44.5 -7.5h139l-102 249q-12 29 -30 41t-55 12z" />
<glyph unicode="&#xe9;" horiz-adv-x="968" d="M990 807q0 -59 -17.5 -105.5t-61.5 -89t-116 -74.5t-184 -57t-264 -40v-13q0 -248 210 -248q62 0 112 18t76 39.5t56 39.5t56 18q28 0 45 -23l65 -77q-112 -112 -216 -161t-244 -49q-184 0 -295.5 119t-111.5 317q0 124 40.5 240.5t111.5 206t177.5 143.5t229.5 54 q79 0 144 -23.5t105 -61t61 -82.5t21 -91zM645 889q-100 0 -172.5 -78t-104.5 -208q123 17 203.5 37.5t121 46.5t55 51t14.5 60t-29.5 63t-87.5 28zM1034 1496h-236q-37 0 -58.5 -12t-40.5 -41l-163 -249h145q28 0 46 7t39 28z" />
<glyph unicode="&#xea;" horiz-adv-x="968" d="M990 807q0 -59 -17.5 -105.5t-61.5 -89t-116 -74.5t-184 -57t-264 -40v-13q0 -248 210 -248q62 0 112 18t76 39.5t56 39.5t56 18q28 0 45 -23l65 -77q-112 -112 -216 -161t-244 -49q-184 0 -295.5 119t-111.5 317q0 124 40.5 240.5t111.5 206t177.5 143.5t229.5 54 q79 0 144 -23.5t105 -61t61 -82.5t21 -91zM645 889q-100 0 -172.5 -78t-104.5 -208q123 17 203.5 37.5t121 46.5t55 51t14.5 60t-29.5 63t-87.5 28zM993 1196l-181 284h-229l-252 -284h169q29 0 51 18l111 102q7 5 22 20q9 -12 17 -20l83 -102q16 -18 47 -18h162z" />
<glyph unicode="&#xeb;" horiz-adv-x="968" d="M990 807q0 -59 -17.5 -105.5t-61.5 -89t-116 -74.5t-184 -57t-264 -40v-13q0 -248 210 -248q62 0 112 18t76 39.5t56 39.5t56 18q28 0 45 -23l65 -77q-112 -112 -216 -161t-244 -49q-184 0 -295.5 119t-111.5 317q0 124 40.5 240.5t111.5 206t177.5 143.5t229.5 54 q79 0 144 -23.5t105 -61t61 -82.5t21 -91zM645 889q-100 0 -172.5 -78t-104.5 -208q123 17 203.5 37.5t121 46.5t55 51t14.5 60t-29.5 63t-87.5 28zM632 1346q0 -57 -42.5 -97.5t-102.5 -40.5q-56 0 -97 40.5t-41 97.5q0 59 41 101t97 42q59 0 102 -42t43 -101zM1014 1346 q0 -58 -42 -98t-101 -40q-58 0 -99 40t-41 98q0 59 41 101t99 42q59 0 101 -42t42 -101z" />
<glyph unicode="&#xec;" horiz-adv-x="527" d="M236 1051h249l-126 -1051h-249zM297 1496h-229l202 -267q14 -20 30.5 -27.5t44.5 -7.5h139l-102 249q-12 29 -30 41t-55 12z" />
<glyph unicode="&#xed;" horiz-adv-x="527" d="M278 1051h249l-126 -1051h-249zM785 1496h-236q-37 0 -58 -12t-40 -41l-164 -249h145q28 0 46 7t39 28z" />
<glyph unicode="&#xee;" horiz-adv-x="527" d="M208 1051h250l-126 -1051h-250zM675 1196l-181 284h-230l-252 -284h169q29 0 51 18l111 102q11 8 23 20q9 -12 17 -20l83 -102q16 -18 47 -18h162z" />
<glyph unicode="&#xef;" horiz-adv-x="527" d="M226 1051h250l-126 -1051h-250zM332 1346q0 -57 -42.5 -97.5t-102.5 -40.5q-56 0 -97 40.5t-41 97.5q0 59 41 101t97 42q59 0 102 -42t43 -101zM714 1346q0 -58 -42 -98t-101 -40q-58 0 -99 40t-41 98q0 59 41 101t99 42q59 0 101 -42t42 -101z" />
<glyph unicode="&#xf0;" horiz-adv-x="1070" d="M538 1005l-46 80q-8 11 -8 25q0 24 22 38l119 77q-66 34 -155 61q-50 16 -50 54q0 21 12 45l37 78q207 -39 344 -138l188 117l41 -80q8 -14 8 -27q0 -25 -26 -42l-104 -66q162 -184 162 -484q0 -351 -151 -554.5t-422 -203.5q-181 0 -294 116.5t-113 313.5q0 145 64 268 t178 196.5t252 73.5q192 0 292 -154q-10 222 -138 342zM539 171q112 0 191.5 96.5t110.5 311.5q-52 189 -218 189q-127 0 -202.5 -97.5t-75.5 -244.5q0 -119 53.5 -187t140.5 -68z" />
<glyph unicode="&#xf1;" horiz-adv-x="1102" d="M359 0h-253l126 1052h129q84 0 84 -82l-7 -136q78 116 175 174.5t203 58.5q119 0 188.5 -83t69.5 -234q0 -33 -5 -81l-79 -669h-253q84 710 84 732q0 67 -24 97.5t-77 30.5q-88 0 -174.5 -95.5t-128.5 -248.5zM830 1390q57 0 69 78h148q-14 -111 -78 -179t-151 -68 q-39 0 -77.5 21.5t-69 42.5t-49.5 21q-57 0 -67 -80h-149q14 111 78 180t150 69q39 0 77.5 -21.5t69 -42.5t49.5 -21z" />
<glyph unicode="&#xf2;" horiz-adv-x="1044" d="M515 179q123 0 200.5 131t77.5 315q0 127 -43.5 187.5t-132.5 60.5q-123 0 -199.5 -129.5t-76.5 -316.5q0 -128 42.5 -188t131.5 -60zM493 -15q-179 0 -292 117t-113 323q0 179 74.5 327t201 231.5t276.5 83.5q179 0 292.5 -117t113.5 -323q0 -176 -75 -324.5t-202 -233 t-276 -84.5zM569 1498h-229l203 -267q14 -20 30 -27.5t44 -7.5h140l-103 249q-12 29 -30 41t-55 12z" />
<glyph unicode="&#xf3;" horiz-adv-x="1044" d="M515 179q123 0 200.5 131t77.5 315q0 127 -43.5 187.5t-132.5 60.5q-123 0 -199.5 -129.5t-76.5 -316.5q0 -128 42.5 -188t131.5 -60zM493 -15q-179 0 -292 117t-113 323q0 179 74.5 327t201 231.5t276.5 83.5q179 0 292.5 -117t113.5 -323q0 -176 -75 -324.5t-202 -233 t-276 -84.5zM1017 1498h-237q-37 0 -58 -12t-40 -41l-164 -249h146q28 0 46 7t39 28z" />
<glyph unicode="&#xf4;" horiz-adv-x="1044" d="M515 179q123 0 200.5 131t77.5 315q0 127 -43.5 187.5t-132.5 60.5q-123 0 -199.5 -129.5t-76.5 -316.5q0 -128 42.5 -188t131.5 -60zM493 -15q-179 0 -292 117t-113 323q0 179 74.5 327t201 231.5t276.5 83.5q179 0 292.5 -117t113.5 -323q0 -176 -75 -324.5t-202 -233 t-276 -84.5zM976 1198l-181 284h-230l-252 -284h169q29 0 52 19l110 101q10 7 23 20q9 -12 17 -20l83 -101q17 -19 47 -19h162z" />
<glyph unicode="&#xf5;" horiz-adv-x="1044" d="M515 179q123 0 200.5 131t77.5 315q0 127 -43.5 187.5t-132.5 60.5q-123 0 -199.5 -129.5t-76.5 -316.5q0 -128 42.5 -188t131.5 -60zM493 -15q-179 0 -292 117t-113 323q0 179 74.5 327t201 231.5t276.5 83.5q179 0 292.5 -117t113.5 -323q0 -176 -75 -324.5t-202 -233 t-276 -84.5zM771 1390q57 0 69 78h147q-14 -112 -77.5 -179.5t-150.5 -67.5q-39 0 -77.5 21.5t-69.5 42.5t-50 21q-56 0 -66 -80h-150q14 111 78 180t150 69q39 0 78 -21.5t69.5 -42.5t49.5 -21z" />
<glyph unicode="&#xf6;" horiz-adv-x="1044" d="M515 179q123 0 200.5 131t77.5 315q0 127 -43.5 187.5t-132.5 60.5q-123 0 -199.5 -129.5t-76.5 -316.5q0 -128 42.5 -188t131.5 -60zM493 -15q-179 0 -292 117t-113 323q0 179 74.5 327t201 231.5t276.5 83.5q179 0 292.5 -117t113.5 -323q0 -176 -75 -324.5t-202 -233 t-276 -84.5zM614 1348q0 -58 -42.5 -98t-101.5 -40q-56 0 -97 40.5t-41 97.5q0 59 41 101t97 42q59 0 101.5 -42t42.5 -101zM996 1348q0 -58 -41.5 -98t-100.5 -40q-58 0 -99 40t-41 98q0 59 41 101t99 42q59 0 100.5 -42t41.5 -101z" />
<glyph unicode="&#xf7;" d="M213 597l23 181h997l-23 -181h-997zM614 1034q0 70 50.5 119.5t120.5 49.5q58 0 96.5 -39.5t38.5 -96.5q0 -69 -51 -117.5t-120 -48.5q-59 0 -97 38t-38 95zM524 305q0 70 50.5 119.5t120.5 49.5q58 0 96 -39t38 -97q0 -69 -51 -117.5t-120 -48.5q-59 0 -96.5 38 t-37.5 95z" />
<glyph unicode="&#xf8;" horiz-adv-x="1044" d="M432 -15q-121 0 -210 52l-10 -13q-55 -74 -152 -74h-93l141 191q-80 112 -80 284q0 179 74.5 327t201 231.5t276.5 83.5q121 0 211 -53l13 18q29 39 51.5 53.5t63.5 14.5h124l-139 -191q81 -114 81 -282q0 -176 -75 -324.5t-202 -233t-276 -84.5zM264 427q0 -45 8 -93 l382 526q-44 29 -97 29q-127 0 -210 -129t-83 -333zM455 163q127 0 210 130.5t83 331.5q0 40 -9 90l-382 -525q42 -27 98 -27z" />
<glyph unicode="&#xf9;" horiz-adv-x="1100" d="M248 1051h253q-84 -708 -84 -734q0 -67 24.5 -96.5t76.5 -29.5q83 0 166 86.5t129 228.5l66 545h253l-127 -1051h-128q-37 0 -64 19.5t-27 56.5v4l7 128q-157 -223 -371 -223q-119 0 -188.5 83t-69.5 232q0 46 5 84zM625 1498h-230l203 -267q14 -20 30.5 -27.5t44.5 -7.5 h139l-102 249q-12 29 -30 41t-55 12z" />
<glyph unicode="&#xfa;" horiz-adv-x="1100" d="M248 1051h253q-84 -708 -84 -734q0 -67 24.5 -96.5t76.5 -29.5q83 0 166 86.5t129 228.5l66 545h253l-127 -1051h-128q-37 0 -64 19.5t-27 56.5v4l7 128q-157 -223 -371 -223q-119 0 -188.5 83t-69.5 232q0 46 5 84zM1072 1498h-236q-37 0 -58.5 -12t-40.5 -41l-164 -249 h146q28 0 46 7t39 28z" />
<glyph unicode="&#xfb;" horiz-adv-x="1100" d="M248 1051h253q-84 -708 -84 -734q0 -67 24.5 -96.5t76.5 -29.5q83 0 166 86.5t129 228.5l66 545h253l-127 -1051h-128q-37 0 -64 19.5t-27 56.5v4l7 128q-157 -223 -371 -223q-119 0 -188.5 83t-69.5 232q0 46 5 84zM1031 1198l-181 284h-229l-252 -284h169q28 0 51 19 l110 101q11 7 23 20q9 -12 17 -20l83 -101q17 -19 47 -19h162z" />
<glyph unicode="&#xfc;" horiz-adv-x="1100" d="M248 1051h253q-84 -708 -84 -734q0 -67 24.5 -96.5t76.5 -29.5q83 0 166 86.5t129 228.5l66 545h253l-127 -1051h-128q-37 0 -64 19.5t-27 56.5v4l7 128q-157 -223 -371 -223q-119 0 -188.5 83t-69.5 232q0 46 5 84zM670 1348q0 -57 -42.5 -97.5t-102.5 -40.5 q-56 0 -97 40.5t-41 97.5q0 59 41 101t97 42q59 0 102 -42t43 -101zM1052 1348q0 -58 -42 -98t-101 -40q-58 0 -99 40t-41 98q0 59 41 101t99 42q59 0 101 -42t42 -101z" />
<glyph unicode="&#xfd;" horiz-adv-x="1017" d="M1153 1051l-694 -1342q-25 -52 -82 -52h-188l234 423l-265 971h212q47 0 60 -47l129 -545q10 -45 15 -105q9 21 26 57.5t22 48.5l259 545q10 21 29 33.5t40 12.5h203zM1038 1498h-236q-37 0 -58.5 -12t-40.5 -41l-163 -249h145q28 0 46 7t39 28z" />
<glyph unicode="&#xfe;" horiz-adv-x="1094" d="M196 -343h-157l227 1865h249l-84 -678q158 223 357 223q135 0 212 -98.5t77 -292.5q0 -176 -69 -335.5t-188 -257.5t-255 -98q-138 0 -228 95l-41 -339q-4 -35 -31.5 -59.5t-68.5 -24.5zM689 868q-81 0 -165.5 -104t-134.5 -261l-32 -258q64 -68 169 -68q86 0 156.5 71.5 t107 179t36.5 222.5q0 108 -35.5 163t-101.5 55z" />
<glyph unicode="&#xff;" horiz-adv-x="1017" d="M1153 1051l-694 -1342q-25 -52 -82 -52h-188l234 423l-265 971h212q47 0 60 -47l129 -545q10 -45 15 -105q9 21 26 57.5t22 48.5l259 545q10 21 29 33.5t40 12.5h203zM636 1348q0 -58 -42.5 -98t-101.5 -40q-56 0 -97.5 40.5t-41.5 97.5q0 59 41.5 101t97.5 42 q59 0 101.5 -42t42.5 -101zM1018 1348q0 -58 -41.5 -98t-100.5 -40q-58 0 -99.5 40.5t-41.5 97.5q0 59 41.5 101t99.5 42q59 0 100.5 -42t41.5 -101z" />
<glyph unicode="&#x152;" horiz-adv-x="2027" d="M1313 1481h831l-26 -212h-595l-53 -422h467l-24 -204h-467l-52 -431h594l-26 -212h-832l22 177q-187 -192 -460 -192q-164 0 -288 84.5t-188 230t-64 330.5q0 183 55.5 344t151 276t230.5 181t288 66q266 0 410 -220zM1197 844q0 201 -83.5 321.5t-234.5 120.5 q-135 0 -239 -82t-160 -229.5t-56 -338.5q0 -201 83.5 -320.5t236.5 -119.5q204 0 328.5 179t124.5 469z" />
<glyph unicode="&#x153;" horiz-adv-x="1594" d="M1300 1066q139 0 223.5 -72.5t84.5 -190.5q0 -57 -17.5 -102.5t-60.5 -88t-113.5 -74.5t-180 -57t-255.5 -39q3 -132 57.5 -197t152.5 -65q62 0 112.5 18t76 39.5t55 39.5t55.5 18q29 0 46 -23l65 -77q-112 -112 -216.5 -161t-243.5 -49q-101 0 -181 50t-125 148 q-75 -96 -178.5 -147t-226.5 -51q-109 0 -189.5 53.5t-119.5 139t-39 190.5q0 133 30.5 247t83.5 196t124.5 140t154.5 86.5t172 28.5q199 0 288 -163q142 163 365 163zM490 172q67 0 120 33t84.5 83.5t52.5 118t29 129.5t8 124q0 218 -159 218q-137 0 -217 -136t-80 -361 q0 -92 38.5 -150.5t123.5 -58.5zM1261 891q-102 0 -174 -77t-96 -218q119 16 202 38.5t126 49t60.5 53t17.5 57.5q0 42 -34.5 69.5t-101.5 27.5z" />
<glyph unicode="&#x178;" horiz-adv-x="1241" d="M1482 1481l-608 -904l-71 -577h-266l71 578l-385 903h237q60 0 82 -61l191 -512q24 -62 38 -141q40 81 78 141l318 512q36 61 95 61h220zM821 1704q0 -50 -37 -85.5t-89 -35.5q-50 0 -86 36t-36 85q0 52 36 88.5t86 36.5q52 0 89 -36.5t37 -88.5zM1181 1704 q0 -50 -36 -85.5t-88 -35.5q-51 0 -87 35.5t-36 85.5q0 52 36 88.5t87 36.5q52 0 88 -36.5t36 -88.5z" />
<glyph unicode="&#x2c6;" horiz-adv-x="605" d="M775 1196l-181 284h-229l-252 -284h169q29 0 51 18l110 102q10 8 23 20q9 -12 17 -20l83 -102q16 -18 47 -18h162z" />
<glyph unicode="&#x2dc;" horiz-adv-x="605" d="M603 1388q57 0 69 78h147q-14 -112 -77.5 -179.5t-150.5 -67.5q-39 0 -77.5 21.5t-69.5 42.5t-50 21q-56 0 -66 -80h-150q14 111 78.5 180t150.5 69q39 0 77.5 -21.5t69 -42.5t49.5 -21z" />
<glyph unicode="&#x2000;" horiz-adv-x="959" />
<glyph unicode="&#x2001;" horiz-adv-x="1919" />
<glyph unicode="&#x2002;" horiz-adv-x="959" />
<glyph unicode="&#x2003;" horiz-adv-x="1919" />
<glyph unicode="&#x2004;" horiz-adv-x="639" />
<glyph unicode="&#x2005;" horiz-adv-x="479" />
<glyph unicode="&#x2006;" horiz-adv-x="319" />
<glyph unicode="&#x2007;" horiz-adv-x="319" />
<glyph unicode="&#x2008;" horiz-adv-x="239" />
<glyph unicode="&#x2009;" horiz-adv-x="383" />
<glyph unicode="&#x200a;" horiz-adv-x="106" />
<glyph unicode="&#x2010;" horiz-adv-x="679" d="M193 516l24 204h493l-26 -204h-491z" />
<glyph unicode="&#x2011;" horiz-adv-x="679" d="M193 516l24 204h493l-26 -204h-491z" />
<glyph unicode="&#x2012;" horiz-adv-x="679" d="M193 516l24 204h493l-26 -204h-491z" />
<glyph unicode="&#x2013;" horiz-adv-x="1075" d="M317 525l22 174h765l-22 -174h-765z" />
<glyph unicode="&#x2014;" horiz-adv-x="1592" d="M317 525l22 174h1282l-22 -174h-1282z" />
<glyph unicode="&#x2018;" horiz-adv-x="427" d="M548 1063l-155 -57q-41 85 -41 178q0 229 237 410l68 -45q16 -10 16 -28q0 -17 -25 -45q-89 -102 -89 -221q0 -62 29 -127q3 -8 3 -16q0 -32 -43 -49z" />
<glyph unicode="&#x2019;" horiz-adv-x="427" d="M547 1563l-155 -58q-43 -17 -43 -50q0 -7 3 -16q29 -64 29 -126q0 -119 -89 -221q-26 -29 -26 -44q0 -18 16 -29l68 -45q116 88 177 192.5t61 217.5q0 94 -41 179z" />
<glyph unicode="&#x201a;" horiz-adv-x="470" d="M108 234l154 58q41 -85 41 -178q0 -231 -237 -411l-69 45q-15 10 -15 29q0 16 25 44q89 102 89 221q0 64 -28 126q-3 9 -3 16q0 33 43 50z" />
<glyph unicode="&#x201c;" horiz-adv-x="744" d="M548 1063l-155 -57q-41 85 -41 178q0 229 237 410l68 -45q16 -10 16 -28q0 -17 -25 -45q-89 -102 -89 -221q0 -62 29 -127q3 -8 3 -16q0 -32 -43 -49zM866 1063l-154 -57q-41 85 -41 178q0 230 236 410l69 -45q15 -9 15 -28q0 -18 -24 -45q-89 -102 -89 -221 q0 -64 28 -127q3 -8 3 -16q0 -32 -43 -49z" />
<glyph unicode="&#x201d;" horiz-adv-x="744" d="M400 1505l155 58q41 -85 41 -179q0 -113 -61 -217.5t-177 -192.5l-68 45q-16 11 -16 29q0 15 26 44q89 102 89 221q0 62 -29 126q-3 9 -3 16q0 33 43 50zM718 1505l154 58q41 -85 41 -179q0 -230 -237 -410l-69 45q-15 11 -15 29q0 16 25 44q90 103 90 221q0 62 -29 126 q-3 9 -3 16q0 33 43 50z" />
<glyph unicode="&#x201e;" horiz-adv-x="744" d="M71 234l154 58q41 -85 41 -178q0 -231 -237 -411l-69 45q-15 10 -15 29q0 16 25 44q89 102 89 221q0 64 -28 126q-3 9 -3 16q0 33 43 50zM389 234l155 58q41 -85 41 -178q0 -113 -61.5 -218t-176.5 -193l-68 45q-16 11 -16 29q0 15 26 44q89 102 89 221q0 62 -29 126 q-3 9 -3 16q0 33 43 50z" />
<glyph unicode="&#x2022;" d="M332 607q0 184 130.5 315t314.5 131q122 0 225 -60t163 -162.5t60 -223.5q0 -120 -60 -221.5t-163 -161t-225 -59.5q-184 0 -314.5 130t-130.5 312z" />
<glyph unicode="&#x2026;" horiz-adv-x="1553" d="M70 139q0 65 44.5 110t109.5 45t110.5 -45.5t45.5 -109.5q0 -65 -45.5 -109t-110.5 -44t-109.5 44t-44.5 109zM616 139q0 65 45 110t110 45t110.5 -45.5t45.5 -109.5q0 -65 -45.5 -109t-110.5 -44t-110 44t-45 109zM1163 139q0 65 44.5 110t110.5 45q65 0 110.5 -45.5 t45.5 -109.5q0 -65 -45.5 -109t-110.5 -44q-66 0 -110.5 44t-44.5 109z" />
<glyph unicode="&#x202f;" horiz-adv-x="383" />
<glyph unicode="&#x2039;" horiz-adv-x="627" d="M441 129l-193 406l5 30l292 405l75 -38q32 -13 32 -45q0 -17 -19 -50l-157 -245q-16 -24 -38 -43q11 -9 27 -41l97 -245q8 -21 8 -36q0 -42 -44 -61z" />
<glyph unicode="&#x203a;" horiz-adv-x="627" d="M631 565l-192 405l-84 -38q-45 -20 -45 -63q0 -15 6 -32l100 -245q7 -26 25 -43q-14 -11 -35 -41l-159 -245q-18 -31 -18 -51q0 -31 32 -46l75 -37l292 406z" />
<glyph unicode="&#x205f;" horiz-adv-x="479" />
<glyph unicode="&#x20ac;" d="M120 811l16 136h132q73 254 245.5 400.5t396.5 146.5q260 0 387 -201l-97 -93q-11 -11 -15 -14.5t-15 -8.5t-24 -5q-14 0 -28.5 11.5t-31.5 28t-39.5 33t-62 28t-90.5 11.5q-131 0 -229 -86.5t-148 -250.5h529l-9 -77q-2 -23 -23.5 -41t-52.5 -18h-475q-9 -58 -12 -122 h445l-10 -74q-3 -25 -24.5 -43t-50.5 -18h-361q11 -174 83 -266t194 -92q69 0 123.5 20.5t80.5 44.5t52 44.5t44 20.5q16 0 33 -17l94 -97q-179 -226 -465 -226q-228 0 -354 154t-136 414h-134l16 135h120q5 71 14 122h-118z" />
<glyph unicode="&#x2122;" horiz-adv-x="1370" d="M1143 1185l-84 268q-6 18 -16 22.5t-35 4.5h-146l-75 -617h148l38 318q2 26 2 89l98 -305q11 -36 53 -36h24q43 0 62 36l178 311q-20 -69 -23 -95l-39 -318h148l74 617h-143q-25 0 -36.5 -4.5t-21.5 -22.5l-153 -268q-19 -31 -36 -69q-5 28 -17 69zM799 1480h-471 l-19 -140h152l-58 -477h167l59 477h152z" />
<glyph unicode="&#x25fc;" horiz-adv-x="1049" d="M0 1050h1050v-1050h-1050v1050z" />
</font>
</defs>
</svg>
